%TF.GenerationSoftware,KiCad,Pcbnew,7.0.10*%
%TF.CreationDate,2024-02-12T08:35:37+01:00*%
%TF.ProjectId,katana60-pro-plate,6b617461-6e61-4363-902d-70726f2d706c,rev?*%
%TF.SameCoordinates,Original*%
%TF.FileFunction,Soldermask,Bot*%
%TF.FilePolarity,Negative*%
%FSLAX46Y46*%
G04 Gerber Fmt 4.6, Leading zero omitted, Abs format (unit mm)*
G04 Created by KiCad (PCBNEW 7.0.10) date 2024-02-12 08:35:37*
%MOMM*%
%LPD*%
G01*
G04 APERTURE LIST*
%ADD10C,1.100000*%
%ADD11C,2.600000*%
G04 APERTURE END LIST*
D10*
%TO.C,MX45*%
X346725000Y-112562500D02*
X346725000Y-125562500D01*
X346225000Y-126062500D02*
X330843750Y-126062500D01*
X330843750Y-112062500D02*
X346225000Y-112062500D01*
X330343750Y-125562500D02*
X330343750Y-112562500D01*
X346725000Y-112562500D02*
G75*
G03*
X346225000Y-112062500I-499998J2D01*
G01*
X346222236Y-126061384D02*
G75*
G03*
X346722236Y-125561384I2J499998D01*
G01*
X330843750Y-112062500D02*
G75*
G03*
X330343750Y-112562500I0J-500000D01*
G01*
X330343750Y-125562500D02*
G75*
G03*
X330843750Y-126062500I500000J0D01*
G01*
%TO.C,MX31*%
X84787500Y-112562500D02*
X84787500Y-125562500D01*
X84287500Y-126062500D02*
X68906250Y-126062500D01*
X68906250Y-112062500D02*
X84287500Y-112062500D01*
X68406250Y-125562500D02*
X68406250Y-112562500D01*
X84787500Y-112562500D02*
G75*
G03*
X84287500Y-112062500I-499998J2D01*
G01*
X84284736Y-126061384D02*
G75*
G03*
X84784736Y-125561384I2J499998D01*
G01*
X68906250Y-112062500D02*
G75*
G03*
X68406250Y-112562500I0J-500000D01*
G01*
X68406250Y-125562500D02*
G75*
G03*
X68906250Y-126062500I500000J0D01*
G01*
%TO.C,MX39_2*%
X227662500Y-112562500D02*
X227662500Y-125562500D01*
X227162500Y-126062500D02*
X211781250Y-126062500D01*
X211781250Y-112062500D02*
X227162500Y-112062500D01*
X211281250Y-125562500D02*
X211281250Y-112562500D01*
X227662500Y-112562500D02*
G75*
G03*
X227162500Y-112062500I-499998J2D01*
G01*
X227159736Y-126061384D02*
G75*
G03*
X227659736Y-125561384I2J499998D01*
G01*
X211781250Y-112062500D02*
G75*
G03*
X211281250Y-112562500I0J-500000D01*
G01*
X211281250Y-125562500D02*
G75*
G03*
X211781250Y-126062500I500000J0D01*
G01*
%TO.C,MX37_2*%
X185087500Y-125562500D02*
X185087500Y-112562500D01*
X185587500Y-112062500D02*
X200968750Y-112062500D01*
X200968750Y-126062500D02*
X185587500Y-126062500D01*
X201468750Y-112562500D02*
X201468750Y-125562500D01*
X185087500Y-125562500D02*
G75*
G03*
X185587500Y-126062500I499998J-2D01*
G01*
X185590264Y-112063616D02*
G75*
G03*
X185090264Y-112563616I-2J-499998D01*
G01*
X200968750Y-126062500D02*
G75*
G03*
X201468750Y-125562500I0J500000D01*
G01*
X201468750Y-112562500D02*
G75*
G03*
X200968750Y-112062500I-500000J0D01*
G01*
%TO.C,S3*%
X142225000Y-163662500D02*
X142225000Y-150662500D01*
X142725000Y-150162500D02*
X155725000Y-150162500D01*
X145850000Y-164162500D02*
X142725000Y-164162500D01*
X145850000Y-164162500D02*
X145850000Y-164662501D01*
X152100000Y-165162501D02*
X146350000Y-165162501D01*
X152600000Y-164162500D02*
X152600000Y-164662501D01*
X155722236Y-164161384D02*
X152600000Y-164162500D01*
X156225000Y-150662500D02*
X156225000Y-163662500D01*
X199375000Y-163662500D02*
X199375000Y-150662500D01*
X199875000Y-150162500D02*
X212875000Y-150162500D01*
X212875000Y-164162500D02*
X199875000Y-164162500D01*
X213375000Y-150662500D02*
X213375000Y-163662500D01*
X256525000Y-163662500D02*
X256525000Y-150662500D01*
X257025000Y-150162500D02*
X270025000Y-150162500D01*
X260150000Y-164162500D02*
X260150000Y-164662501D01*
X260150605Y-164162500D02*
X257025000Y-164162500D01*
X266400000Y-165162501D02*
X260650000Y-165162501D01*
X266900000Y-164162500D02*
X266900000Y-164662501D01*
X270022236Y-164161384D02*
X266900000Y-164162500D01*
X270525000Y-150662500D02*
X270525000Y-163662500D01*
X142725000Y-150162500D02*
G75*
G03*
X142225000Y-150662500I1J-500001D01*
G01*
X142225000Y-163662500D02*
G75*
G03*
X142725000Y-164162500I500001J1D01*
G01*
X145850000Y-164662501D02*
G75*
G03*
X146350000Y-165162501I500001J1D01*
G01*
X152100000Y-165162501D02*
G75*
G03*
X152600000Y-164662501I-1J500001D01*
G01*
X156225000Y-150662500D02*
G75*
G03*
X155725000Y-150162500I-500001J-1D01*
G01*
X155722236Y-164161384D02*
G75*
G03*
X156222236Y-163661384I-112J500112D01*
G01*
X199875000Y-150162500D02*
G75*
G03*
X199375000Y-150662500I1J-500001D01*
G01*
X199375000Y-163662500D02*
G75*
G03*
X199875000Y-164162500I500001J1D01*
G01*
X213375000Y-150662500D02*
G75*
G03*
X212875000Y-150162500I-500000J0D01*
G01*
X212872236Y-164161436D02*
G75*
G03*
X213372236Y-163661384I-36J500036D01*
G01*
X257025000Y-150162500D02*
G75*
G03*
X256525000Y-150662500I0J-500000D01*
G01*
X256525000Y-163662500D02*
G75*
G03*
X257025000Y-164162500I500000J0D01*
G01*
X260149999Y-164662501D02*
G75*
G03*
X260650000Y-165162501I500001J1D01*
G01*
X266400000Y-165162500D02*
G75*
G03*
X266900000Y-164662501I0J500000D01*
G01*
X270525000Y-150662500D02*
G75*
G03*
X270025000Y-150162500I-500000J0D01*
G01*
X270022236Y-164161436D02*
G75*
G03*
X270522236Y-163661384I-136J500136D01*
G01*
%TO.C,S2*%
X219668750Y-151662501D02*
X219668750Y-164662501D01*
X225918750Y-151162501D02*
X220168750Y-151162501D01*
X225918750Y-165162501D02*
X220168750Y-165162501D01*
X226418750Y-151662501D02*
X226418750Y-164662501D01*
X227950000Y-163662500D02*
X227950000Y-150662500D01*
X228450000Y-150162500D02*
X241450000Y-150162500D01*
X241450000Y-164162500D02*
X228450000Y-164162500D01*
X241950000Y-150662500D02*
X241950000Y-163662500D01*
X243481250Y-151662501D02*
X243481250Y-164662501D01*
X249731250Y-151162501D02*
X243981250Y-151162501D01*
X249731250Y-165162501D02*
X243981250Y-165162501D01*
X250231250Y-151662501D02*
X250231250Y-164662501D01*
X220168750Y-151162501D02*
G75*
G03*
X219668750Y-151662501I1J-500001D01*
G01*
X219668750Y-164662501D02*
G75*
G03*
X220168750Y-165162501I500001J1D01*
G01*
X226418750Y-151662501D02*
G75*
G03*
X225918750Y-151162501I-500001J-1D01*
G01*
X225918750Y-165162501D02*
G75*
G03*
X226418750Y-164662501I-1J500001D01*
G01*
X228450000Y-150162500D02*
G75*
G03*
X227950000Y-150662500I1J-500001D01*
G01*
X227950000Y-163662500D02*
G75*
G03*
X228450000Y-164162500I500001J1D01*
G01*
X241950000Y-150662500D02*
G75*
G03*
X241450000Y-150162500I-500000J0D01*
G01*
X241447236Y-164161436D02*
G75*
G03*
X241947236Y-163661384I-36J500036D01*
G01*
X243981250Y-151162450D02*
G75*
G03*
X243481250Y-151662501I50J-500050D01*
G01*
X243481299Y-164662501D02*
G75*
G03*
X243981250Y-165162501I500001J1D01*
G01*
X250231199Y-151662501D02*
G75*
G03*
X249731250Y-151162501I-499999J1D01*
G01*
X249731250Y-165162550D02*
G75*
G03*
X250231250Y-164662501I-50J500050D01*
G01*
%TO.C,S1*%
X162518750Y-151662501D02*
X162518750Y-164662501D01*
X168768750Y-151162501D02*
X163018750Y-151162501D01*
X168768750Y-165162501D02*
X163018750Y-165162501D01*
X169268750Y-151662501D02*
X169268750Y-164662501D01*
X170800000Y-163662500D02*
X170800000Y-150662500D01*
X171300000Y-150162500D02*
X184300000Y-150162500D01*
X184300000Y-164162500D02*
X171300000Y-164162500D01*
X184800000Y-150662500D02*
X184800000Y-163662500D01*
X186331250Y-151662501D02*
X186331250Y-164662501D01*
X192581250Y-151162501D02*
X186831250Y-151162501D01*
X192581250Y-165162501D02*
X186831250Y-165162501D01*
X193081250Y-151662501D02*
X193081250Y-164662501D01*
X163018750Y-151162501D02*
G75*
G03*
X162518750Y-151662501I1J-500001D01*
G01*
X162518750Y-164662501D02*
G75*
G03*
X163018750Y-165162501I500001J1D01*
G01*
X169268750Y-151662501D02*
G75*
G03*
X168768750Y-151162501I-500001J-1D01*
G01*
X168768750Y-165162501D02*
G75*
G03*
X169268750Y-164662501I-1J500001D01*
G01*
X171300000Y-150162500D02*
G75*
G03*
X170800000Y-150662500I1J-500001D01*
G01*
X170800000Y-163662500D02*
G75*
G03*
X171300000Y-164162500I500001J1D01*
G01*
X184800000Y-150662500D02*
G75*
G03*
X184300000Y-150162500I-500000J0D01*
G01*
X184297236Y-164161436D02*
G75*
G03*
X184797236Y-163661384I-36J500036D01*
G01*
X186831250Y-151162450D02*
G75*
G03*
X186331250Y-151662501I50J-500050D01*
G01*
X186331299Y-164662501D02*
G75*
G03*
X186831250Y-165162501I500001J1D01*
G01*
X193081199Y-151662501D02*
G75*
G03*
X192581250Y-151162501I-499999J1D01*
G01*
X192581250Y-165162550D02*
G75*
G03*
X193081250Y-164662501I-50J500050D01*
G01*
%TO.C,MX56*%
X270525000Y-131612500D02*
X270525000Y-144612500D01*
X270025000Y-145112500D02*
X257025000Y-145112500D01*
X257025000Y-131112500D02*
X270025000Y-131112500D01*
X256525000Y-144612500D02*
X256525000Y-131612500D01*
X270022236Y-145111384D02*
G75*
G03*
X270522236Y-144611384I2J499998D01*
G01*
X270525000Y-131612500D02*
G75*
G03*
X270025000Y-131112500I-499998J2D01*
G01*
X256525000Y-144612500D02*
G75*
G03*
X257025000Y-145112500I500000J0D01*
G01*
X257025000Y-131112500D02*
G75*
G03*
X256525000Y-131612500I0J-500000D01*
G01*
%TO.C,MX73*%
X308625000Y-150662500D02*
X308625000Y-163662500D01*
X308125000Y-164162500D02*
X295125000Y-164162500D01*
X295125000Y-150162500D02*
X308125000Y-150162500D01*
X294625000Y-163662500D02*
X294625000Y-150662500D01*
X308122236Y-164161384D02*
G75*
G03*
X308622236Y-163661384I2J499998D01*
G01*
X308625000Y-150662500D02*
G75*
G03*
X308125000Y-150162500I-499998J2D01*
G01*
X294625000Y-163662500D02*
G75*
G03*
X295125000Y-164162500I500000J0D01*
G01*
X295125000Y-150162500D02*
G75*
G03*
X294625000Y-150662500I0J-500000D01*
G01*
%TO.C,MX19*%
X146700000Y-93512500D02*
X146700000Y-106512500D01*
X146200000Y-107012500D02*
X133200000Y-107012500D01*
X133200000Y-93012500D02*
X146200000Y-93012500D01*
X132700000Y-106512500D02*
X132700000Y-93512500D01*
X146197236Y-107011384D02*
G75*
G03*
X146697236Y-106511384I2J499998D01*
G01*
X146700000Y-93512500D02*
G75*
G03*
X146200000Y-93012500I-499998J2D01*
G01*
X132700000Y-106512500D02*
G75*
G03*
X133200000Y-107012500I500000J0D01*
G01*
X133200000Y-93012500D02*
G75*
G03*
X132700000Y-93512500I0J-500000D01*
G01*
%TO.C,MX5*%
X156225000Y-74462500D02*
X156225000Y-87462500D01*
X155725000Y-87962500D02*
X142725000Y-87962500D01*
X142725000Y-73962500D02*
X155725000Y-73962500D01*
X142225000Y-87462500D02*
X142225000Y-74462500D01*
X155722236Y-87961384D02*
G75*
G03*
X156222236Y-87461384I2J499998D01*
G01*
X156225000Y-74462500D02*
G75*
G03*
X155725000Y-73962500I-499998J2D01*
G01*
X142225000Y-87462500D02*
G75*
G03*
X142725000Y-87962500I500000J0D01*
G01*
X142725000Y-73962500D02*
G75*
G03*
X142225000Y-74462500I0J-500000D01*
G01*
%TO.C,MX16*%
X84787500Y-93512500D02*
X84787500Y-106512500D01*
X84287500Y-107012500D02*
X71287500Y-107012500D01*
X71287500Y-93012500D02*
X84287500Y-93012500D01*
X70787500Y-106512500D02*
X70787500Y-93512500D01*
X84284736Y-107011384D02*
G75*
G03*
X84784736Y-106511384I2J499998D01*
G01*
X84787500Y-93512500D02*
G75*
G03*
X84287500Y-93012500I-499998J2D01*
G01*
X70787500Y-106512500D02*
G75*
G03*
X71287500Y-107012500I500000J0D01*
G01*
X71287500Y-93012500D02*
G75*
G03*
X70787500Y-93512500I0J-500000D01*
G01*
%TO.C,MX51*%
X175275000Y-131612500D02*
X175275000Y-144612500D01*
X174775000Y-145112500D02*
X161775000Y-145112500D01*
X161775000Y-131112500D02*
X174775000Y-131112500D01*
X161275000Y-144612500D02*
X161275000Y-131612500D01*
X174772236Y-145111384D02*
G75*
G03*
X175272236Y-144611384I2J499998D01*
G01*
X175275000Y-131612500D02*
G75*
G03*
X174775000Y-131112500I-499998J2D01*
G01*
X161275000Y-144612500D02*
G75*
G03*
X161775000Y-145112500I500000J0D01*
G01*
X161775000Y-131112500D02*
G75*
G03*
X161275000Y-131612500I0J-500000D01*
G01*
%TO.C,MX40*%
X246712500Y-112562500D02*
X246712500Y-125562500D01*
X246212500Y-126062500D02*
X233212500Y-126062500D01*
X233212500Y-112062500D02*
X246212500Y-112062500D01*
X232712500Y-125562500D02*
X232712500Y-112562500D01*
X246209736Y-126061384D02*
G75*
G03*
X246709736Y-125561384I2J499998D01*
G01*
X246712500Y-112562500D02*
G75*
G03*
X246212500Y-112062500I-499998J2D01*
G01*
X232712500Y-125562500D02*
G75*
G03*
X233212500Y-126062500I500000J0D01*
G01*
X233212500Y-112062500D02*
G75*
G03*
X232712500Y-112562500I0J-500000D01*
G01*
%TO.C,MX8*%
X213375000Y-74462500D02*
X213375000Y-87462500D01*
X212875000Y-87962500D02*
X199875000Y-87962500D01*
X199875000Y-73962500D02*
X212875000Y-73962500D01*
X199375000Y-87462500D02*
X199375000Y-74462500D01*
X212872236Y-87961384D02*
G75*
G03*
X213372236Y-87461384I2J499998D01*
G01*
X213375000Y-74462500D02*
G75*
G03*
X212875000Y-73962500I-499998J2D01*
G01*
X199375000Y-87462500D02*
G75*
G03*
X199875000Y-87962500I500000J0D01*
G01*
X199875000Y-73962500D02*
G75*
G03*
X199375000Y-74462500I0J-500000D01*
G01*
%TO.C,MX7*%
X194325000Y-74462500D02*
X194325000Y-87462500D01*
X193825000Y-87962500D02*
X180825000Y-87962500D01*
X180825000Y-73962500D02*
X193825000Y-73962500D01*
X180325000Y-87462500D02*
X180325000Y-74462500D01*
X193822236Y-87961384D02*
G75*
G03*
X194322236Y-87461384I2J499998D01*
G01*
X194325000Y-74462500D02*
G75*
G03*
X193825000Y-73962500I-499998J2D01*
G01*
X180325000Y-87462500D02*
G75*
G03*
X180825000Y-87962500I500000J0D01*
G01*
X180825000Y-73962500D02*
G75*
G03*
X180325000Y-74462500I0J-500000D01*
G01*
%TO.C,MX26*%
X261000000Y-93512500D02*
X261000000Y-106512500D01*
X260500000Y-107012500D02*
X247500000Y-107012500D01*
X247500000Y-93012500D02*
X260500000Y-93012500D01*
X247000000Y-106512500D02*
X247000000Y-93512500D01*
X260497236Y-107011384D02*
G75*
G03*
X260997236Y-106511384I2J499998D01*
G01*
X261000000Y-93512500D02*
G75*
G03*
X260500000Y-93012500I-499998J2D01*
G01*
X247000000Y-106512500D02*
G75*
G03*
X247500000Y-107012500I500000J0D01*
G01*
X247500000Y-93012500D02*
G75*
G03*
X247000000Y-93512500I0J-500000D01*
G01*
%TO.C,MX41*%
X265762500Y-112562500D02*
X265762500Y-125562500D01*
X265262500Y-126062500D02*
X252262500Y-126062500D01*
X252262500Y-112062500D02*
X265262500Y-112062500D01*
X251762500Y-125562500D02*
X251762500Y-112562500D01*
X265259736Y-126061384D02*
G75*
G03*
X265759736Y-125561384I2J499998D01*
G01*
X265762500Y-112562500D02*
G75*
G03*
X265262500Y-112062500I-499998J2D01*
G01*
X251762500Y-125562500D02*
G75*
G03*
X252262500Y-126062500I500000J0D01*
G01*
X252262500Y-112062500D02*
G75*
G03*
X251762500Y-112562500I0J-500000D01*
G01*
%TO.C,MX48*%
X118125000Y-131612500D02*
X118125000Y-144612500D01*
X117625000Y-145112500D02*
X104625000Y-145112500D01*
X104625000Y-131112500D02*
X117625000Y-131112500D01*
X104125000Y-144612500D02*
X104125000Y-131612500D01*
X117622236Y-145111384D02*
G75*
G03*
X118122236Y-144611384I2J499998D01*
G01*
X118125000Y-131612500D02*
G75*
G03*
X117625000Y-131112500I-499998J2D01*
G01*
X104125000Y-144612500D02*
G75*
G03*
X104625000Y-145112500I500000J0D01*
G01*
X104625000Y-131112500D02*
G75*
G03*
X104125000Y-131612500I0J-500000D01*
G01*
%TO.C,MX22*%
X203850000Y-93512500D02*
X203850000Y-106512500D01*
X203350000Y-107012500D02*
X190350000Y-107012500D01*
X190350000Y-93012500D02*
X203350000Y-93012500D01*
X189850000Y-106512500D02*
X189850000Y-93512500D01*
X203347236Y-107011384D02*
G75*
G03*
X203847236Y-106511384I2J499998D01*
G01*
X203850000Y-93512500D02*
G75*
G03*
X203350000Y-93012500I-499998J2D01*
G01*
X189850000Y-106512500D02*
G75*
G03*
X190350000Y-107012500I500000J0D01*
G01*
X190350000Y-93012500D02*
G75*
G03*
X189850000Y-93512500I0J-500000D01*
G01*
%TO.C,MX35*%
X160987500Y-112562500D02*
X160987500Y-125562500D01*
X160487500Y-126062500D02*
X147487500Y-126062500D01*
X147487500Y-112062500D02*
X160487500Y-112062500D01*
X146987500Y-125562500D02*
X146987500Y-112562500D01*
X160484736Y-126061384D02*
G75*
G03*
X160984736Y-125561384I2J499998D01*
G01*
X160987500Y-112562500D02*
G75*
G03*
X160487500Y-112062500I-499998J2D01*
G01*
X146987500Y-125562500D02*
G75*
G03*
X147487500Y-126062500I500000J0D01*
G01*
X147487500Y-112062500D02*
G75*
G03*
X146987500Y-112562500I0J-500000D01*
G01*
%TO.C,MX32*%
X103837500Y-112562500D02*
X103837500Y-125562500D01*
X103337500Y-126062500D02*
X90337500Y-126062500D01*
X90337500Y-112062500D02*
X103337500Y-112062500D01*
X89837500Y-125562500D02*
X89837500Y-112562500D01*
X103334736Y-126061384D02*
G75*
G03*
X103834736Y-125561384I2J499998D01*
G01*
X103837500Y-112562500D02*
G75*
G03*
X103337500Y-112062500I-499998J2D01*
G01*
X89837500Y-125562500D02*
G75*
G03*
X90337500Y-126062500I500000J0D01*
G01*
X90337500Y-112062500D02*
G75*
G03*
X89837500Y-112562500I0J-500000D01*
G01*
%TO.C,MX2*%
X85075000Y-87462500D02*
X85075000Y-74462500D01*
X85575000Y-73962500D02*
X98575000Y-73962500D01*
X98575000Y-87962500D02*
X85575000Y-87962500D01*
X99075000Y-74462500D02*
X99075000Y-87462500D01*
X85577764Y-73963616D02*
G75*
G03*
X85077764Y-74463616I-2J-499998D01*
G01*
X85075000Y-87462500D02*
G75*
G03*
X85575000Y-87962500I499998J-2D01*
G01*
X99075000Y-74462500D02*
G75*
G03*
X98575000Y-73962500I-500000J0D01*
G01*
X98575000Y-87962500D02*
G75*
G03*
X99075000Y-87462500I0J500000D01*
G01*
%TO.C,MX14*%
X327675000Y-74462500D02*
X327675000Y-87462500D01*
X327175000Y-87962500D02*
X314175000Y-87962500D01*
X314175000Y-73962500D02*
X327175000Y-73962500D01*
X313675000Y-87462500D02*
X313675000Y-74462500D01*
X327172236Y-87961384D02*
G75*
G03*
X327672236Y-87461384I2J499998D01*
G01*
X327675000Y-74462500D02*
G75*
G03*
X327175000Y-73962500I-499998J2D01*
G01*
X313675000Y-87462500D02*
G75*
G03*
X314175000Y-87962500I500000J0D01*
G01*
X314175000Y-73962500D02*
G75*
G03*
X313675000Y-74462500I0J-500000D01*
G01*
%TO.C,MX54*%
X232425000Y-131612500D02*
X232425000Y-144612500D01*
X231925000Y-145112500D02*
X218925000Y-145112500D01*
X218925000Y-131112500D02*
X231925000Y-131112500D01*
X218425000Y-144612500D02*
X218425000Y-131612500D01*
X231922236Y-145111384D02*
G75*
G03*
X232422236Y-144611384I2J499998D01*
G01*
X232425000Y-131612500D02*
G75*
G03*
X231925000Y-131112500I-499998J2D01*
G01*
X218425000Y-144612500D02*
G75*
G03*
X218925000Y-145112500I500000J0D01*
G01*
X218925000Y-131112500D02*
G75*
G03*
X218425000Y-131612500I0J-500000D01*
G01*
%TO.C,MX10*%
X251475000Y-74462500D02*
X251475000Y-87462500D01*
X250975000Y-87962500D02*
X237975000Y-87962500D01*
X237975000Y-73962500D02*
X250975000Y-73962500D01*
X237475000Y-87462500D02*
X237475000Y-74462500D01*
X250972236Y-87961384D02*
G75*
G03*
X251472236Y-87461384I2J499998D01*
G01*
X251475000Y-74462500D02*
G75*
G03*
X250975000Y-73962500I-499998J2D01*
G01*
X237475000Y-87462500D02*
G75*
G03*
X237975000Y-87962500I500000J0D01*
G01*
X237975000Y-73962500D02*
G75*
G03*
X237475000Y-74462500I0J-500000D01*
G01*
%TO.C,MX20*%
X165750000Y-93512500D02*
X165750000Y-106512500D01*
X165250000Y-107012500D02*
X152250000Y-107012500D01*
X152250000Y-93012500D02*
X165250000Y-93012500D01*
X151750000Y-106512500D02*
X151750000Y-93512500D01*
X165247236Y-107011384D02*
G75*
G03*
X165747236Y-106511384I2J499998D01*
G01*
X165750000Y-93512500D02*
G75*
G03*
X165250000Y-93012500I-499998J2D01*
G01*
X151750000Y-106512500D02*
G75*
G03*
X152250000Y-107012500I500000J0D01*
G01*
X152250000Y-93012500D02*
G75*
G03*
X151750000Y-93512500I0J-500000D01*
G01*
%TO.C,MX42*%
X284812500Y-112562500D02*
X284812500Y-125562500D01*
X284312500Y-126062500D02*
X271312500Y-126062500D01*
X271312500Y-112062500D02*
X284312500Y-112062500D01*
X270812500Y-125562500D02*
X270812500Y-112562500D01*
X284309736Y-126061384D02*
G75*
G03*
X284809736Y-125561384I2J499998D01*
G01*
X284812500Y-112562500D02*
G75*
G03*
X284312500Y-112062500I-499998J2D01*
G01*
X270812500Y-125562500D02*
G75*
G03*
X271312500Y-126062500I500000J0D01*
G01*
X271312500Y-112062500D02*
G75*
G03*
X270812500Y-112562500I0J-500000D01*
G01*
%TO.C,MX24*%
X222900000Y-93512500D02*
X222900000Y-106512500D01*
X222400000Y-107012500D02*
X209400000Y-107012500D01*
X209400000Y-93012500D02*
X222400000Y-93012500D01*
X208900000Y-106512500D02*
X208900000Y-93512500D01*
X222397236Y-107011384D02*
G75*
G03*
X222897236Y-106511384I2J499998D01*
G01*
X222900000Y-93512500D02*
G75*
G03*
X222400000Y-93012500I-499998J2D01*
G01*
X208900000Y-106512500D02*
G75*
G03*
X209400000Y-107012500I500000J0D01*
G01*
X209400000Y-93012500D02*
G75*
G03*
X208900000Y-93512500I0J-500000D01*
G01*
%TO.C,MX12*%
X289575000Y-74462500D02*
X289575000Y-87462500D01*
X289075000Y-87962500D02*
X276075000Y-87962500D01*
X276075000Y-73962500D02*
X289075000Y-73962500D01*
X275575000Y-87462500D02*
X275575000Y-74462500D01*
X289072236Y-87961384D02*
G75*
G03*
X289572236Y-87461384I2J499998D01*
G01*
X289575000Y-74462500D02*
G75*
G03*
X289075000Y-73962500I-499998J2D01*
G01*
X275575000Y-87462500D02*
G75*
G03*
X276075000Y-87962500I500000J0D01*
G01*
X276075000Y-73962500D02*
G75*
G03*
X275575000Y-74462500I0J-500000D01*
G01*
%TO.C,MX46*%
X80025000Y-131612500D02*
X80025000Y-144612500D01*
X79525000Y-145112500D02*
X66525000Y-145112500D01*
X66525000Y-131112500D02*
X79525000Y-131112500D01*
X66025000Y-144612500D02*
X66025000Y-131612500D01*
X79522236Y-145111384D02*
G75*
G03*
X80022236Y-144611384I2J499998D01*
G01*
X80025000Y-131612500D02*
G75*
G03*
X79525000Y-131112500I-499998J2D01*
G01*
X66025000Y-144612500D02*
G75*
G03*
X66525000Y-145112500I500000J0D01*
G01*
X66525000Y-131112500D02*
G75*
G03*
X66025000Y-131612500I0J-500000D01*
G01*
%TO.C,MX15*%
X346725000Y-74462500D02*
X346725000Y-87462500D01*
X346225000Y-87962500D02*
X333225000Y-87962500D01*
X333225000Y-73962500D02*
X346225000Y-73962500D01*
X332725000Y-87462500D02*
X332725000Y-74462500D01*
X346222236Y-87961384D02*
G75*
G03*
X346722236Y-87461384I2J499998D01*
G01*
X346725000Y-74462500D02*
G75*
G03*
X346225000Y-73962500I-499998J2D01*
G01*
X332725000Y-87462500D02*
G75*
G03*
X333225000Y-87962500I500000J0D01*
G01*
X333225000Y-73962500D02*
G75*
G03*
X332725000Y-74462500I0J-500000D01*
G01*
%TO.C,MX50*%
X156225000Y-131612500D02*
X156225000Y-144612500D01*
X155725000Y-145112500D02*
X142725000Y-145112500D01*
X142725000Y-131112500D02*
X155725000Y-131112500D01*
X142225000Y-144612500D02*
X142225000Y-131612500D01*
X155722236Y-145111384D02*
G75*
G03*
X156222236Y-144611384I2J499998D01*
G01*
X156225000Y-131612500D02*
G75*
G03*
X155725000Y-131112500I-499998J2D01*
G01*
X142225000Y-144612500D02*
G75*
G03*
X142725000Y-145112500I500000J0D01*
G01*
X142725000Y-131112500D02*
G75*
G03*
X142225000Y-131612500I0J-500000D01*
G01*
%TO.C,MX1*%
X66025000Y-87462500D02*
X66025000Y-74462500D01*
X66525000Y-73962500D02*
X79525000Y-73962500D01*
X79525000Y-87962500D02*
X66525000Y-87962500D01*
X80025000Y-74462500D02*
X80025000Y-87462500D01*
X66527764Y-73963616D02*
G75*
G03*
X66027764Y-74463616I-2J-499998D01*
G01*
X66025000Y-87462500D02*
G75*
G03*
X66525000Y-87962500I499998J-2D01*
G01*
X80025000Y-74462500D02*
G75*
G03*
X79525000Y-73962500I-500000J0D01*
G01*
X79525000Y-87962500D02*
G75*
G03*
X80025000Y-87462500I0J500000D01*
G01*
%TO.C,MX29*%
X318150000Y-93512500D02*
X318150000Y-106512500D01*
X317650000Y-107012500D02*
X304650000Y-107012500D01*
X304650000Y-93012500D02*
X317650000Y-93012500D01*
X304150000Y-106512500D02*
X304150000Y-93512500D01*
X317647236Y-107011384D02*
G75*
G03*
X318147236Y-106511384I2J499998D01*
G01*
X318150000Y-93512500D02*
G75*
G03*
X317650000Y-93012500I-499998J2D01*
G01*
X304150000Y-106512500D02*
G75*
G03*
X304650000Y-107012500I500000J0D01*
G01*
X304650000Y-93012500D02*
G75*
G03*
X304150000Y-93512500I0J-500000D01*
G01*
%TO.C,MX57*%
X289575000Y-131612500D02*
X289575000Y-144612500D01*
X289075000Y-145112500D02*
X276075000Y-145112500D01*
X276075000Y-131112500D02*
X289075000Y-131112500D01*
X275575000Y-144612500D02*
X275575000Y-131612500D01*
X289072236Y-145111384D02*
G75*
G03*
X289572236Y-144611384I2J499998D01*
G01*
X289575000Y-131612500D02*
G75*
G03*
X289075000Y-131112500I-499998J2D01*
G01*
X275575000Y-144612500D02*
G75*
G03*
X276075000Y-145112500I500000J0D01*
G01*
X276075000Y-131112500D02*
G75*
G03*
X275575000Y-131612500I0J-500000D01*
G01*
%TO.C,MX18*%
X127650000Y-93512500D02*
X127650000Y-106512500D01*
X127150000Y-107012500D02*
X114150000Y-107012500D01*
X114150000Y-93012500D02*
X127150000Y-93012500D01*
X113650000Y-106512500D02*
X113650000Y-93512500D01*
X127147236Y-107011384D02*
G75*
G03*
X127647236Y-106511384I2J499998D01*
G01*
X127650000Y-93512500D02*
G75*
G03*
X127150000Y-93012500I-499998J2D01*
G01*
X113650000Y-106512500D02*
G75*
G03*
X114150000Y-107012500I500000J0D01*
G01*
X114150000Y-93012500D02*
G75*
G03*
X113650000Y-93512500I0J-500000D01*
G01*
%TO.C,MX44*%
X322912500Y-112562500D02*
X322912500Y-125562500D01*
X322412500Y-126062500D02*
X309412500Y-126062500D01*
X309412500Y-112062500D02*
X322412500Y-112062500D01*
X308912500Y-125562500D02*
X308912500Y-112562500D01*
X322409736Y-126061384D02*
G75*
G03*
X322909736Y-125561384I2J499998D01*
G01*
X322912500Y-112562500D02*
G75*
G03*
X322412500Y-112062500I-499998J2D01*
G01*
X308912500Y-125562500D02*
G75*
G03*
X309412500Y-126062500I500000J0D01*
G01*
X309412500Y-112062500D02*
G75*
G03*
X308912500Y-112562500I0J-500000D01*
G01*
%TO.C,MX21*%
X184800000Y-93512500D02*
X184800000Y-106512500D01*
X184300000Y-107012500D02*
X171300000Y-107012500D01*
X171300000Y-93012500D02*
X184300000Y-93012500D01*
X170800000Y-106512500D02*
X170800000Y-93512500D01*
X184297236Y-107011384D02*
G75*
G03*
X184797236Y-106511384I2J499998D01*
G01*
X184800000Y-93512500D02*
G75*
G03*
X184300000Y-93012500I-499998J2D01*
G01*
X170800000Y-106512500D02*
G75*
G03*
X171300000Y-107012500I500000J0D01*
G01*
X171300000Y-93012500D02*
G75*
G03*
X170800000Y-93512500I0J-500000D01*
G01*
%TO.C,MX59*%
X327675000Y-131612500D02*
X327675000Y-144612500D01*
X327175000Y-145112500D02*
X314175000Y-145112500D01*
X314175000Y-131112500D02*
X327175000Y-131112500D01*
X313675000Y-144612500D02*
X313675000Y-131612500D01*
X327172236Y-145111384D02*
G75*
G03*
X327672236Y-144611384I2J499998D01*
G01*
X327675000Y-131612500D02*
G75*
G03*
X327175000Y-131112500I-499998J2D01*
G01*
X313675000Y-144612500D02*
G75*
G03*
X314175000Y-145112500I500000J0D01*
G01*
X314175000Y-131112500D02*
G75*
G03*
X313675000Y-131612500I0J-500000D01*
G01*
%TO.C,MX43*%
X303862500Y-112562500D02*
X303862500Y-125562500D01*
X303362500Y-126062500D02*
X290362500Y-126062500D01*
X290362500Y-112062500D02*
X303362500Y-112062500D01*
X289862500Y-125562500D02*
X289862500Y-112562500D01*
X303359736Y-126061384D02*
G75*
G03*
X303859736Y-125561384I2J499998D01*
G01*
X303862500Y-112562500D02*
G75*
G03*
X303362500Y-112062500I-499998J2D01*
G01*
X289862500Y-125562500D02*
G75*
G03*
X290362500Y-126062500I500000J0D01*
G01*
X290362500Y-112062500D02*
G75*
G03*
X289862500Y-112562500I0J-500000D01*
G01*
%TO.C,MX75*%
X346725000Y-150662500D02*
X346725000Y-163662500D01*
X346225000Y-164162500D02*
X333225000Y-164162500D01*
X333225000Y-150162500D02*
X346225000Y-150162500D01*
X332725000Y-163662500D02*
X332725000Y-150662500D01*
X346222236Y-164161384D02*
G75*
G03*
X346722236Y-163661384I2J499998D01*
G01*
X346725000Y-150662500D02*
G75*
G03*
X346225000Y-150162500I-499998J2D01*
G01*
X332725000Y-163662500D02*
G75*
G03*
X333225000Y-164162500I500000J0D01*
G01*
X333225000Y-150162500D02*
G75*
G03*
X332725000Y-150662500I0J-500000D01*
G01*
%TO.C,MX36*%
X180037500Y-112562500D02*
X180037500Y-125562500D01*
X179537500Y-126062500D02*
X166537500Y-126062500D01*
X166537500Y-112062500D02*
X179537500Y-112062500D01*
X166037500Y-125562500D02*
X166037500Y-112562500D01*
X179534736Y-126061384D02*
G75*
G03*
X180034736Y-125561384I2J499998D01*
G01*
X180037500Y-112562500D02*
G75*
G03*
X179537500Y-112062500I-499998J2D01*
G01*
X166037500Y-125562500D02*
G75*
G03*
X166537500Y-126062500I500000J0D01*
G01*
X166537500Y-112062500D02*
G75*
G03*
X166037500Y-112562500I0J-500000D01*
G01*
%TO.C,MX11*%
X270525000Y-74462500D02*
X270525000Y-87462500D01*
X270025000Y-87962500D02*
X257025000Y-87962500D01*
X257025000Y-73962500D02*
X270025000Y-73962500D01*
X256525000Y-87462500D02*
X256525000Y-74462500D01*
X270022236Y-87961384D02*
G75*
G03*
X270522236Y-87461384I2J499998D01*
G01*
X270525000Y-74462500D02*
G75*
G03*
X270025000Y-73962500I-499998J2D01*
G01*
X256525000Y-87462500D02*
G75*
G03*
X257025000Y-87962500I500000J0D01*
G01*
X257025000Y-73962500D02*
G75*
G03*
X256525000Y-74462500I0J-500000D01*
G01*
%TO.C,MX61*%
X80025000Y-150662500D02*
X80025000Y-163662500D01*
X79525000Y-164162500D02*
X66525000Y-164162500D01*
X66525000Y-150162500D02*
X79525000Y-150162500D01*
X66025000Y-163662500D02*
X66025000Y-150662500D01*
X79522236Y-164161384D02*
G75*
G03*
X80022236Y-163661384I2J499998D01*
G01*
X80025000Y-150662500D02*
G75*
G03*
X79525000Y-150162500I-499998J2D01*
G01*
X66025000Y-163662500D02*
G75*
G03*
X66525000Y-164162500I500000J0D01*
G01*
X66525000Y-150162500D02*
G75*
G03*
X66025000Y-150662500I0J-500000D01*
G01*
%TO.C,MX27*%
X280050000Y-93512500D02*
X280050000Y-106512500D01*
X279550000Y-107012500D02*
X266550000Y-107012500D01*
X266550000Y-93012500D02*
X279550000Y-93012500D01*
X266050000Y-106512500D02*
X266050000Y-93512500D01*
X279547236Y-107011384D02*
G75*
G03*
X280047236Y-106511384I2J499998D01*
G01*
X280050000Y-93512500D02*
G75*
G03*
X279550000Y-93012500I-499998J2D01*
G01*
X266050000Y-106512500D02*
G75*
G03*
X266550000Y-107012500I500000J0D01*
G01*
X266550000Y-93012500D02*
G75*
G03*
X266050000Y-93512500I0J-500000D01*
G01*
%TO.C,MX47*%
X99075000Y-131612500D02*
X99075000Y-144612500D01*
X98575000Y-145112500D02*
X85575000Y-145112500D01*
X85575000Y-131112500D02*
X98575000Y-131112500D01*
X85075000Y-144612500D02*
X85075000Y-131612500D01*
X98572236Y-145111384D02*
G75*
G03*
X99072236Y-144611384I2J499998D01*
G01*
X99075000Y-131612500D02*
G75*
G03*
X98575000Y-131112500I-499998J2D01*
G01*
X85075000Y-144612500D02*
G75*
G03*
X85575000Y-145112500I500000J0D01*
G01*
X85575000Y-131112500D02*
G75*
G03*
X85075000Y-131612500I0J-500000D01*
G01*
%TO.C,MX3*%
X118125000Y-74462500D02*
X118125000Y-87462500D01*
X117625000Y-87962500D02*
X104625000Y-87962500D01*
X104625000Y-73962500D02*
X117625000Y-73962500D01*
X104125000Y-87462500D02*
X104125000Y-74462500D01*
X117622236Y-87961384D02*
G75*
G03*
X118122236Y-87461384I2J499998D01*
G01*
X118125000Y-74462500D02*
G75*
G03*
X117625000Y-73962500I-499998J2D01*
G01*
X104125000Y-87462500D02*
G75*
G03*
X104625000Y-87962500I500000J0D01*
G01*
X104625000Y-73962500D02*
G75*
G03*
X104125000Y-74462500I0J-500000D01*
G01*
%TO.C,MX33*%
X122887500Y-112562500D02*
X122887500Y-125562500D01*
X122387500Y-126062500D02*
X109387500Y-126062500D01*
X109387500Y-112062500D02*
X122387500Y-112062500D01*
X108887500Y-125562500D02*
X108887500Y-112562500D01*
X122384736Y-126061384D02*
G75*
G03*
X122884736Y-125561384I2J499998D01*
G01*
X122887500Y-112562500D02*
G75*
G03*
X122387500Y-112062500I-499998J2D01*
G01*
X108887500Y-125562500D02*
G75*
G03*
X109387500Y-126062500I500000J0D01*
G01*
X109387500Y-112062500D02*
G75*
G03*
X108887500Y-112562500I0J-500000D01*
G01*
%TO.C,MX49*%
X137175000Y-131612500D02*
X137175000Y-144612500D01*
X136675000Y-145112500D02*
X123675000Y-145112500D01*
X123675000Y-131112500D02*
X136675000Y-131112500D01*
X123175000Y-144612500D02*
X123175000Y-131612500D01*
X136672236Y-145111384D02*
G75*
G03*
X137172236Y-144611384I2J499998D01*
G01*
X137175000Y-131612500D02*
G75*
G03*
X136675000Y-131112500I-499998J2D01*
G01*
X123175000Y-144612500D02*
G75*
G03*
X123675000Y-145112500I500000J0D01*
G01*
X123675000Y-131112500D02*
G75*
G03*
X123175000Y-131612500I0J-500000D01*
G01*
%TO.C,MX64*%
X137175000Y-150662500D02*
X137175000Y-163662500D01*
X136675000Y-164162500D02*
X123675000Y-164162500D01*
X123675000Y-150162500D02*
X136675000Y-150162500D01*
X123175000Y-163662500D02*
X123175000Y-150662500D01*
X136672236Y-164161384D02*
G75*
G03*
X137172236Y-163661384I2J499998D01*
G01*
X137175000Y-150662500D02*
G75*
G03*
X136675000Y-150162500I-499998J2D01*
G01*
X123175000Y-163662500D02*
G75*
G03*
X123675000Y-164162500I500000J0D01*
G01*
X123675000Y-150162500D02*
G75*
G03*
X123175000Y-150662500I0J-500000D01*
G01*
%TO.C,MX60*%
X346725000Y-131612500D02*
X346725000Y-144612500D01*
X346225000Y-145112500D02*
X333225000Y-145112500D01*
X333225000Y-131112500D02*
X346225000Y-131112500D01*
X332725000Y-144612500D02*
X332725000Y-131612500D01*
X346222236Y-145111384D02*
G75*
G03*
X346722236Y-144611384I2J499998D01*
G01*
X346725000Y-131612500D02*
G75*
G03*
X346225000Y-131112500I-499998J2D01*
G01*
X332725000Y-144612500D02*
G75*
G03*
X333225000Y-145112500I500000J0D01*
G01*
X333225000Y-131112500D02*
G75*
G03*
X332725000Y-131612500I0J-500000D01*
G01*
%TO.C,MX13*%
X308625000Y-74462500D02*
X308625000Y-87462500D01*
X308125000Y-87962500D02*
X295125000Y-87962500D01*
X295125000Y-73962500D02*
X308125000Y-73962500D01*
X294625000Y-87462500D02*
X294625000Y-74462500D01*
X308122236Y-87961384D02*
G75*
G03*
X308622236Y-87461384I2J499998D01*
G01*
X308625000Y-74462500D02*
G75*
G03*
X308125000Y-73962500I-499998J2D01*
G01*
X294625000Y-87462500D02*
G75*
G03*
X295125000Y-87962500I500000J0D01*
G01*
X295125000Y-73962500D02*
G75*
G03*
X294625000Y-74462500I0J-500000D01*
G01*
%TO.C,MX9*%
X232425000Y-74462500D02*
X232425000Y-87462500D01*
X231925000Y-87962500D02*
X218925000Y-87962500D01*
X218925000Y-73962500D02*
X231925000Y-73962500D01*
X218425000Y-87462500D02*
X218425000Y-74462500D01*
X231922236Y-87961384D02*
G75*
G03*
X232422236Y-87461384I2J499998D01*
G01*
X232425000Y-74462500D02*
G75*
G03*
X231925000Y-73962500I-499998J2D01*
G01*
X218425000Y-87462500D02*
G75*
G03*
X218925000Y-87962500I500000J0D01*
G01*
X218925000Y-73962500D02*
G75*
G03*
X218425000Y-74462500I0J-500000D01*
G01*
%TO.C,MX34*%
X141937500Y-112562500D02*
X141937500Y-125562500D01*
X141437500Y-126062500D02*
X128437500Y-126062500D01*
X128437500Y-112062500D02*
X141437500Y-112062500D01*
X127937500Y-125562500D02*
X127937500Y-112562500D01*
X141434736Y-126061384D02*
G75*
G03*
X141934736Y-125561384I2J499998D01*
G01*
X141937500Y-112562500D02*
G75*
G03*
X141437500Y-112062500I-499998J2D01*
G01*
X127937500Y-125562500D02*
G75*
G03*
X128437500Y-126062500I500000J0D01*
G01*
X128437500Y-112062500D02*
G75*
G03*
X127937500Y-112562500I0J-500000D01*
G01*
%TO.C,MX63*%
X118125000Y-150662500D02*
X118125000Y-163662500D01*
X117625000Y-164162500D02*
X104625000Y-164162500D01*
X104625000Y-150162500D02*
X117625000Y-150162500D01*
X104125000Y-163662500D02*
X104125000Y-150662500D01*
X117622236Y-164161384D02*
G75*
G03*
X118122236Y-163661384I2J499998D01*
G01*
X118125000Y-150662500D02*
G75*
G03*
X117625000Y-150162500I-499998J2D01*
G01*
X104125000Y-163662500D02*
G75*
G03*
X104625000Y-164162500I500000J0D01*
G01*
X104625000Y-150162500D02*
G75*
G03*
X104125000Y-150662500I0J-500000D01*
G01*
%TO.C,MX53*%
X213375000Y-131612500D02*
X213375000Y-144612500D01*
X212875000Y-145112500D02*
X199875000Y-145112500D01*
X199875000Y-131112500D02*
X212875000Y-131112500D01*
X199375000Y-144612500D02*
X199375000Y-131612500D01*
X212872236Y-145111384D02*
G75*
G03*
X213372236Y-144611384I2J499998D01*
G01*
X213375000Y-131612500D02*
G75*
G03*
X212875000Y-131112500I-499998J2D01*
G01*
X199375000Y-144612500D02*
G75*
G03*
X199875000Y-145112500I500000J0D01*
G01*
X199875000Y-131112500D02*
G75*
G03*
X199375000Y-131612500I0J-500000D01*
G01*
%TO.C,MX74*%
X327675000Y-150662500D02*
X327675000Y-163662500D01*
X327175000Y-164162500D02*
X314175000Y-164162500D01*
X314175000Y-150162500D02*
X327175000Y-150162500D01*
X313675000Y-163662500D02*
X313675000Y-150662500D01*
X327172236Y-164161384D02*
G75*
G03*
X327672236Y-163661384I2J499998D01*
G01*
X327675000Y-150662500D02*
G75*
G03*
X327175000Y-150162500I-499998J2D01*
G01*
X313675000Y-163662500D02*
G75*
G03*
X314175000Y-164162500I500000J0D01*
G01*
X314175000Y-150162500D02*
G75*
G03*
X313675000Y-150662500I0J-500000D01*
G01*
%TO.C,MX4*%
X137175000Y-74462500D02*
X137175000Y-87462500D01*
X136675000Y-87962500D02*
X123675000Y-87962500D01*
X123675000Y-73962500D02*
X136675000Y-73962500D01*
X123175000Y-87462500D02*
X123175000Y-74462500D01*
X136672236Y-87961384D02*
G75*
G03*
X137172236Y-87461384I2J499998D01*
G01*
X137175000Y-74462500D02*
G75*
G03*
X136675000Y-73962500I-499998J2D01*
G01*
X123175000Y-87462500D02*
G75*
G03*
X123675000Y-87962500I500000J0D01*
G01*
X123675000Y-73962500D02*
G75*
G03*
X123175000Y-74462500I0J-500000D01*
G01*
%TO.C,MX52*%
X194325000Y-131612500D02*
X194325000Y-144612500D01*
X193825000Y-145112500D02*
X180825000Y-145112500D01*
X180825000Y-131112500D02*
X193825000Y-131112500D01*
X180325000Y-144612500D02*
X180325000Y-131612500D01*
X193822236Y-145111384D02*
G75*
G03*
X194322236Y-144611384I2J499998D01*
G01*
X194325000Y-131612500D02*
G75*
G03*
X193825000Y-131112500I-499998J2D01*
G01*
X180325000Y-144612500D02*
G75*
G03*
X180825000Y-145112500I500000J0D01*
G01*
X180825000Y-131112500D02*
G75*
G03*
X180325000Y-131612500I0J-500000D01*
G01*
%TO.C,MX55*%
X251475000Y-131612500D02*
X251475000Y-144612500D01*
X250975000Y-145112500D02*
X237975000Y-145112500D01*
X237975000Y-131112500D02*
X250975000Y-131112500D01*
X237475000Y-144612500D02*
X237475000Y-131612500D01*
X250972236Y-145111384D02*
G75*
G03*
X251472236Y-144611384I2J499998D01*
G01*
X251475000Y-131612500D02*
G75*
G03*
X250975000Y-131112500I-499998J2D01*
G01*
X237475000Y-144612500D02*
G75*
G03*
X237975000Y-145112500I500000J0D01*
G01*
X237975000Y-131112500D02*
G75*
G03*
X237475000Y-131612500I0J-500000D01*
G01*
%TO.C,MX25*%
X241950000Y-93512500D02*
X241950000Y-106512500D01*
X241450000Y-107012500D02*
X228450000Y-107012500D01*
X228450000Y-93012500D02*
X241450000Y-93012500D01*
X227950000Y-106512500D02*
X227950000Y-93512500D01*
X241447236Y-107011384D02*
G75*
G03*
X241947236Y-106511384I2J499998D01*
G01*
X241950000Y-93512500D02*
G75*
G03*
X241450000Y-93012500I-499998J2D01*
G01*
X227950000Y-106512500D02*
G75*
G03*
X228450000Y-107012500I500000J0D01*
G01*
X228450000Y-93012500D02*
G75*
G03*
X227950000Y-93512500I0J-500000D01*
G01*
%TO.C,MX72*%
X289575000Y-150662500D02*
X289575000Y-163662500D01*
X289075000Y-164162500D02*
X276075000Y-164162500D01*
X276075000Y-150162500D02*
X289075000Y-150162500D01*
X275575000Y-163662500D02*
X275575000Y-150662500D01*
X289072236Y-164161384D02*
G75*
G03*
X289572236Y-163661384I2J499998D01*
G01*
X289575000Y-150662500D02*
G75*
G03*
X289075000Y-150162500I-499998J2D01*
G01*
X275575000Y-163662500D02*
G75*
G03*
X276075000Y-164162500I500000J0D01*
G01*
X276075000Y-150162500D02*
G75*
G03*
X275575000Y-150662500I0J-500000D01*
G01*
%TO.C,MX30*%
X341962500Y-93512500D02*
X341962500Y-106512500D01*
X341462500Y-107012500D02*
X328462500Y-107012500D01*
X328462500Y-93012500D02*
X341462500Y-93012500D01*
X327962500Y-106512500D02*
X327962500Y-93512500D01*
X341459736Y-107011384D02*
G75*
G03*
X341959736Y-106511384I2J499998D01*
G01*
X341962500Y-93512500D02*
G75*
G03*
X341462500Y-93012500I-499998J2D01*
G01*
X327962500Y-106512500D02*
G75*
G03*
X328462500Y-107012500I500000J0D01*
G01*
X328462500Y-93012500D02*
G75*
G03*
X327962500Y-93512500I0J-500000D01*
G01*
%TO.C,MX58*%
X308625000Y-131612500D02*
X308625000Y-144612500D01*
X308125000Y-145112500D02*
X295125000Y-145112500D01*
X295125000Y-131112500D02*
X308125000Y-131112500D01*
X294625000Y-144612500D02*
X294625000Y-131612500D01*
X308122236Y-145111384D02*
G75*
G03*
X308622236Y-144611384I2J499998D01*
G01*
X308625000Y-131612500D02*
G75*
G03*
X308125000Y-131112500I-499998J2D01*
G01*
X294625000Y-144612500D02*
G75*
G03*
X295125000Y-145112500I500000J0D01*
G01*
X295125000Y-131112500D02*
G75*
G03*
X294625000Y-131612500I0J-500000D01*
G01*
%TO.C,MX17*%
X108600000Y-93512500D02*
X108600000Y-106512500D01*
X108100000Y-107012500D02*
X95100000Y-107012500D01*
X95100000Y-93012500D02*
X108100000Y-93012500D01*
X94600000Y-106512500D02*
X94600000Y-93512500D01*
X108097236Y-107011384D02*
G75*
G03*
X108597236Y-106511384I2J499998D01*
G01*
X108600000Y-93512500D02*
G75*
G03*
X108100000Y-93012500I-499998J2D01*
G01*
X94600000Y-106512500D02*
G75*
G03*
X95100000Y-107012500I500000J0D01*
G01*
X95100000Y-93012500D02*
G75*
G03*
X94600000Y-93512500I0J-500000D01*
G01*
%TO.C,MX28*%
X299100000Y-93512500D02*
X299100000Y-106512500D01*
X298600000Y-107012500D02*
X285600000Y-107012500D01*
X285600000Y-93012500D02*
X298600000Y-93012500D01*
X285100000Y-106512500D02*
X285100000Y-93512500D01*
X298597236Y-107011384D02*
G75*
G03*
X299097236Y-106511384I2J499998D01*
G01*
X299100000Y-93512500D02*
G75*
G03*
X298600000Y-93012500I-499998J2D01*
G01*
X285100000Y-106512500D02*
G75*
G03*
X285600000Y-107012500I500000J0D01*
G01*
X285600000Y-93012500D02*
G75*
G03*
X285100000Y-93512500I0J-500000D01*
G01*
%TO.C,MX62*%
X99075000Y-150662500D02*
X99075000Y-163662500D01*
X98575000Y-164162500D02*
X85575000Y-164162500D01*
X85575000Y-150162500D02*
X98575000Y-150162500D01*
X85075000Y-163662500D02*
X85075000Y-150662500D01*
X98572236Y-164161384D02*
G75*
G03*
X99072236Y-163661384I2J499998D01*
G01*
X99075000Y-150662500D02*
G75*
G03*
X98575000Y-150162500I-499998J2D01*
G01*
X85075000Y-163662500D02*
G75*
G03*
X85575000Y-164162500I500000J0D01*
G01*
X85575000Y-150162500D02*
G75*
G03*
X85075000Y-150662500I0J-500000D01*
G01*
%TO.C,MX6*%
X175275000Y-74462500D02*
X175275000Y-87462500D01*
X174775000Y-87962500D02*
X161775000Y-87962500D01*
X161775000Y-73962500D02*
X174775000Y-73962500D01*
X161275000Y-87462500D02*
X161275000Y-74462500D01*
X174772236Y-87961384D02*
G75*
G03*
X175272236Y-87461384I2J499998D01*
G01*
X175275000Y-74462500D02*
G75*
G03*
X174775000Y-73962500I-499998J2D01*
G01*
X161275000Y-87462500D02*
G75*
G03*
X161775000Y-87962500I500000J0D01*
G01*
X161775000Y-73962500D02*
G75*
G03*
X161275000Y-74462500I0J-500000D01*
G01*
%TD*%
D11*
%TO.C,H6*%
X292100000Y-147637500D03*
%TD*%
%TO.C,H1*%
X120650000Y-90487500D03*
%TD*%
%TO.C,H4*%
X120650000Y-147637500D03*
%TD*%
%TO.C,H3*%
X292100000Y-90487500D03*
%TD*%
%TO.C,H5*%
X206375000Y-147637500D03*
%TD*%
%TO.C,H2*%
X206375000Y-90487500D03*
%TD*%
M02*
