%TF.GenerationSoftware,KiCad,Pcbnew,7.0.10*%
%TF.CreationDate,2024-02-12T08:35:37+01:00*%
%TF.ProjectId,katana60-pro-plate,6b617461-6e61-4363-902d-70726f2d706c,rev?*%
%TF.SameCoordinates,Original*%
%TF.FileFunction,Legend,Top*%
%TF.FilePolarity,Positive*%
%FSLAX46Y46*%
G04 Gerber Fmt 4.6, Leading zero omitted, Abs format (unit mm)*
G04 Created by KiCad (PCBNEW 7.0.10) date 2024-02-12 08:35:37*
%MOMM*%
%LPD*%
G01*
G04 APERTURE LIST*
%ADD10C,1.100000*%
%ADD11C,2.600000*%
%ADD12C,4.400000*%
G04 APERTURE END LIST*
%TO.C,REF\u002A\u002A*%
G36*
X207869419Y-116517408D02*
G01*
X208153344Y-116519035D01*
X208372974Y-116520900D01*
X208460120Y-116522052D01*
X208497661Y-116522895D01*
X208531620Y-116524100D01*
X208562325Y-116525806D01*
X208590105Y-116528150D01*
X208615289Y-116531271D01*
X208627011Y-116533166D01*
X208638206Y-116535307D01*
X208648917Y-116537711D01*
X208659184Y-116540396D01*
X208669049Y-116543378D01*
X208678553Y-116546676D01*
X208687736Y-116550305D01*
X208696640Y-116554285D01*
X208705307Y-116558631D01*
X208713776Y-116563361D01*
X208722090Y-116568493D01*
X208730288Y-116574043D01*
X208738414Y-116580029D01*
X208746506Y-116586469D01*
X208754608Y-116593378D01*
X208762759Y-116600776D01*
X208779375Y-116617103D01*
X208789724Y-116628238D01*
X208799453Y-116639838D01*
X208808551Y-116651874D01*
X208817008Y-116664321D01*
X208824815Y-116677151D01*
X208831959Y-116690338D01*
X208838433Y-116703853D01*
X208844224Y-116717671D01*
X208849323Y-116731764D01*
X208853721Y-116746106D01*
X208857405Y-116760669D01*
X208860367Y-116775426D01*
X208862596Y-116790351D01*
X208864081Y-116805416D01*
X208864813Y-116820595D01*
X208864782Y-116835860D01*
X208857355Y-117328457D01*
X208859186Y-117841502D01*
X208867148Y-118365203D01*
X208878117Y-118889768D01*
X208889291Y-119448754D01*
X208895361Y-119923429D01*
X208896003Y-120131387D01*
X208894793Y-120320951D01*
X208891541Y-120493017D01*
X208886054Y-120648480D01*
X208878142Y-120788233D01*
X208867612Y-120913173D01*
X208854273Y-121024194D01*
X208837933Y-121122190D01*
X208818401Y-121208056D01*
X208795485Y-121282689D01*
X208768993Y-121346981D01*
X208754347Y-121375529D01*
X208738734Y-121401828D01*
X208700165Y-121458656D01*
X208660668Y-121509462D01*
X208620085Y-121554571D01*
X208578253Y-121594307D01*
X208535013Y-121628997D01*
X208490204Y-121658964D01*
X208443667Y-121684534D01*
X208395239Y-121706033D01*
X208344761Y-121723784D01*
X208292073Y-121738114D01*
X208237014Y-121749348D01*
X208179423Y-121757810D01*
X208119141Y-121763826D01*
X208056006Y-121767720D01*
X207989858Y-121769818D01*
X207920537Y-121770445D01*
X207861824Y-121770113D01*
X207800879Y-121769215D01*
X207671934Y-121766318D01*
X207496873Y-121762299D01*
X207297523Y-121759412D01*
X207069716Y-121759263D01*
X206809287Y-121763460D01*
X206793747Y-121763424D01*
X206778394Y-121762614D01*
X206763246Y-121761048D01*
X206748325Y-121758745D01*
X206733647Y-121755723D01*
X206719234Y-121752000D01*
X206705104Y-121747595D01*
X206691276Y-121742525D01*
X206677771Y-121736811D01*
X206664606Y-121730469D01*
X206651802Y-121723518D01*
X206639377Y-121715977D01*
X206627352Y-121707864D01*
X206615745Y-121699197D01*
X206604576Y-121689995D01*
X206593863Y-121680276D01*
X206583627Y-121670058D01*
X206573886Y-121659360D01*
X206564661Y-121648200D01*
X206555969Y-121636597D01*
X206547831Y-121624569D01*
X206540266Y-121612134D01*
X206533292Y-121599310D01*
X206526930Y-121586117D01*
X206521199Y-121572572D01*
X206516118Y-121558694D01*
X206511705Y-121544501D01*
X206507982Y-121530011D01*
X206504966Y-121515244D01*
X206502678Y-121500216D01*
X206501136Y-121484947D01*
X206500359Y-121469456D01*
X206500367Y-121453944D01*
X206501150Y-121438615D01*
X206502691Y-121423488D01*
X206504971Y-121408584D01*
X206507972Y-121393922D01*
X206511675Y-121379521D01*
X206516063Y-121365400D01*
X206521116Y-121351579D01*
X206526817Y-121338078D01*
X206533147Y-121324915D01*
X206540087Y-121312112D01*
X206547620Y-121299686D01*
X206555727Y-121287657D01*
X206564389Y-121276046D01*
X206573588Y-121264871D01*
X206583306Y-121254151D01*
X206593525Y-121243907D01*
X206604226Y-121234158D01*
X206615390Y-121224923D01*
X206627000Y-121216222D01*
X206639037Y-121208074D01*
X206651482Y-121200498D01*
X206664317Y-121193515D01*
X206677525Y-121187144D01*
X206691085Y-121181403D01*
X206704981Y-121176314D01*
X206719194Y-121171894D01*
X206733705Y-121168164D01*
X206748496Y-121165143D01*
X206763548Y-121162850D01*
X206778844Y-121161306D01*
X206794365Y-121160528D01*
X206934693Y-121157708D01*
X207066467Y-121156242D01*
X207305024Y-121156480D01*
X207511374Y-121159457D01*
X207686857Y-121163386D01*
X207770171Y-121165375D01*
X207843439Y-121166876D01*
X207907398Y-121167792D01*
X207962784Y-121168029D01*
X207987493Y-121167863D01*
X208010335Y-121167492D01*
X208031402Y-121166904D01*
X208050786Y-121166087D01*
X208068580Y-121165028D01*
X208084876Y-121163717D01*
X208099764Y-121162142D01*
X208113339Y-121160290D01*
X208125691Y-121158149D01*
X208136913Y-121155709D01*
X208147097Y-121152956D01*
X208156335Y-121149879D01*
X208164720Y-121146467D01*
X208172342Y-121142707D01*
X208179295Y-121138587D01*
X208185670Y-121134096D01*
X208191559Y-121129222D01*
X208197055Y-121123952D01*
X208202249Y-121118276D01*
X208207235Y-121112181D01*
X208212103Y-121105655D01*
X208216946Y-121098687D01*
X208226925Y-121083375D01*
X208242734Y-121033660D01*
X208255994Y-120963946D01*
X208275587Y-120771769D01*
X208287150Y-120521341D01*
X208292132Y-120227157D01*
X208288138Y-119565507D01*
X208275185Y-118902786D01*
X208258000Y-118003388D01*
X208254066Y-117557886D01*
X208255817Y-117122563D01*
X206193019Y-117117483D01*
X206193385Y-117239503D01*
X206190827Y-117377893D01*
X206184503Y-117531553D01*
X206173573Y-117699381D01*
X206157195Y-117880277D01*
X206134530Y-118073138D01*
X206104736Y-118276864D01*
X206066972Y-118490353D01*
X206016896Y-118727571D01*
X205958884Y-118960949D01*
X205893031Y-119190311D01*
X205819431Y-119415479D01*
X205738177Y-119636275D01*
X205649364Y-119852521D01*
X205553085Y-120064041D01*
X205449434Y-120270655D01*
X205338506Y-120472187D01*
X205220394Y-120668459D01*
X205095192Y-120859293D01*
X204962995Y-121044512D01*
X204823895Y-121223937D01*
X204677988Y-121397392D01*
X204525366Y-121564698D01*
X204366125Y-121725678D01*
X204354915Y-121736000D01*
X204343328Y-121745652D01*
X204331392Y-121754635D01*
X204319130Y-121762950D01*
X204306568Y-121770597D01*
X204293733Y-121777576D01*
X204280649Y-121783889D01*
X204267342Y-121789535D01*
X204253839Y-121794515D01*
X204240163Y-121798830D01*
X204226342Y-121802480D01*
X204212400Y-121805465D01*
X204198363Y-121807786D01*
X204184257Y-121809443D01*
X204170107Y-121810437D01*
X204155940Y-121810768D01*
X204141181Y-121810411D01*
X204126451Y-121809339D01*
X204111778Y-121807553D01*
X204097192Y-121805053D01*
X204082722Y-121801838D01*
X204068395Y-121797909D01*
X204054242Y-121793266D01*
X204040290Y-121787908D01*
X204026569Y-121781836D01*
X204013108Y-121775049D01*
X203999935Y-121767548D01*
X203987079Y-121759333D01*
X203974569Y-121750403D01*
X203962435Y-121740759D01*
X203950703Y-121730401D01*
X203939405Y-121719328D01*
X203928888Y-121707930D01*
X203919067Y-121696139D01*
X203909940Y-121683981D01*
X203901509Y-121671484D01*
X203893771Y-121658674D01*
X203886727Y-121645578D01*
X203880377Y-121632223D01*
X203874719Y-121618635D01*
X203869754Y-121604843D01*
X203865481Y-121590873D01*
X203861900Y-121576751D01*
X203859010Y-121562506D01*
X203856810Y-121548162D01*
X203855302Y-121533748D01*
X203854483Y-121519291D01*
X203854354Y-121504817D01*
X203854915Y-121490353D01*
X203856164Y-121475926D01*
X203858102Y-121461563D01*
X203860727Y-121447291D01*
X203864041Y-121433138D01*
X203868041Y-121419129D01*
X203872729Y-121405291D01*
X203878102Y-121391653D01*
X203884162Y-121378240D01*
X203890907Y-121365079D01*
X203898338Y-121352198D01*
X203906453Y-121339623D01*
X203915253Y-121327381D01*
X203924737Y-121315500D01*
X203934904Y-121304005D01*
X203945755Y-121292925D01*
X204085055Y-121152363D01*
X204216349Y-121009201D01*
X204339869Y-120863764D01*
X204455851Y-120716379D01*
X204564525Y-120567368D01*
X204666126Y-120417058D01*
X204760888Y-120265774D01*
X204849042Y-120113839D01*
X204930823Y-119961581D01*
X205006463Y-119809322D01*
X205140256Y-119506106D01*
X205252287Y-119206791D01*
X205344421Y-118913977D01*
X205418525Y-118630264D01*
X205476464Y-118358252D01*
X205520105Y-118100540D01*
X205551312Y-117859728D01*
X205571953Y-117638417D01*
X205583893Y-117439206D01*
X205589134Y-117117483D01*
X204155939Y-117118435D01*
X204155622Y-117118435D01*
X204140120Y-117118043D01*
X204124821Y-117116879D01*
X204109744Y-117114963D01*
X204094908Y-117112312D01*
X204080332Y-117108947D01*
X204066034Y-117104886D01*
X204052034Y-117100148D01*
X204038350Y-117094752D01*
X204025002Y-117088717D01*
X204012008Y-117082062D01*
X203999387Y-117074805D01*
X203987158Y-117066967D01*
X203975340Y-117058565D01*
X203963951Y-117049619D01*
X203953012Y-117040148D01*
X203942540Y-117030170D01*
X203932554Y-117019705D01*
X203923074Y-117008772D01*
X203914118Y-116997389D01*
X203905705Y-116985575D01*
X203897855Y-116973350D01*
X203890585Y-116960732D01*
X203883915Y-116947741D01*
X203877864Y-116934395D01*
X203872451Y-116920713D01*
X203867694Y-116906714D01*
X203863612Y-116892417D01*
X203860225Y-116877841D01*
X203857551Y-116863005D01*
X203855609Y-116847929D01*
X203854418Y-116832630D01*
X203853997Y-116817128D01*
X203854388Y-116801625D01*
X203855550Y-116786324D01*
X203857462Y-116771242D01*
X203860107Y-116756401D01*
X203863466Y-116741817D01*
X203867519Y-116727511D01*
X203872249Y-116713501D01*
X203877636Y-116699807D01*
X203883661Y-116686447D01*
X203890307Y-116673440D01*
X203897553Y-116660806D01*
X203905382Y-116648563D01*
X203913774Y-116636731D01*
X203922711Y-116625328D01*
X203932173Y-116614374D01*
X203942143Y-116603887D01*
X203952601Y-116593887D01*
X203963529Y-116584392D01*
X203974907Y-116575421D01*
X203986718Y-116566994D01*
X203998941Y-116559130D01*
X204011559Y-116551847D01*
X204024553Y-116545165D01*
X204037904Y-116539102D01*
X204051593Y-116533678D01*
X204065601Y-116528911D01*
X204079910Y-116524821D01*
X204094500Y-116521427D01*
X204109354Y-116518747D01*
X204124451Y-116516801D01*
X204139775Y-116515607D01*
X204155304Y-116515186D01*
X206353674Y-116514233D01*
X207869419Y-116517408D01*
G37*
%TD*%
%LPC*%
D10*
%TO.C,MX45*%
X346725000Y-125562500D02*
X346725000Y-112562500D01*
X346225000Y-112062500D02*
X330843750Y-112062500D01*
X330846514Y-126061384D02*
X346225000Y-126062500D01*
X330343750Y-112562500D02*
X330343750Y-125562500D01*
X346725000Y-112562500D02*
G75*
G03*
X346225000Y-112062500I-500001J-1D01*
G01*
X346225000Y-126062500D02*
G75*
G03*
X346725000Y-125562500I-1J500001D01*
G01*
X330843750Y-112062500D02*
G75*
G03*
X330343750Y-112562500I0J-500000D01*
G01*
X330346516Y-125561384D02*
G75*
G03*
X330846514Y-126061384I500114J114D01*
G01*
%TO.C,MX31*%
X84787500Y-125562500D02*
X84787500Y-112562500D01*
X84287500Y-112062500D02*
X68906250Y-112062500D01*
X68909014Y-126061384D02*
X84287500Y-126062500D01*
X68406250Y-112562500D02*
X68406250Y-125562500D01*
X84787500Y-112562500D02*
G75*
G03*
X84287500Y-112062500I-500001J-1D01*
G01*
X84287500Y-126062500D02*
G75*
G03*
X84787500Y-125562500I-1J500001D01*
G01*
X68906250Y-112062500D02*
G75*
G03*
X68406250Y-112562500I0J-500000D01*
G01*
X68409016Y-125561384D02*
G75*
G03*
X68909014Y-126061384I500114J114D01*
G01*
%TO.C,MX39_2*%
X227662500Y-125562500D02*
X227662500Y-112562500D01*
X227162500Y-112062500D02*
X211781250Y-112062500D01*
X211784014Y-126061384D02*
X227162500Y-126062500D01*
X211281250Y-112562500D02*
X211281250Y-125562500D01*
X227662500Y-112562500D02*
G75*
G03*
X227162500Y-112062500I-500001J-1D01*
G01*
X227162500Y-126062500D02*
G75*
G03*
X227662500Y-125562500I-1J500001D01*
G01*
X211781250Y-112062500D02*
G75*
G03*
X211281250Y-112562500I0J-500000D01*
G01*
X211284016Y-125561384D02*
G75*
G03*
X211784014Y-126061384I500114J114D01*
G01*
%TO.C,MX37_2*%
X185087500Y-112562500D02*
X185087500Y-125562500D01*
X185587500Y-126062500D02*
X200968750Y-126062500D01*
X200965986Y-112063616D02*
X185587500Y-112062500D01*
X201468750Y-125562500D02*
X201468750Y-112562500D01*
X185087500Y-125562500D02*
G75*
G03*
X185587500Y-126062500I500001J1D01*
G01*
X185587500Y-112062500D02*
G75*
G03*
X185087500Y-112562500I1J-500001D01*
G01*
X200968750Y-126062500D02*
G75*
G03*
X201468750Y-125562500I0J500000D01*
G01*
X201465984Y-112563616D02*
G75*
G03*
X200965986Y-112063616I-500114J-114D01*
G01*
%TO.C,S3*%
X142225000Y-150662500D02*
X142225000Y-163662500D01*
X142725000Y-164162500D02*
X145850000Y-164162500D01*
X145850000Y-164162500D02*
X145850000Y-164662501D01*
X146350000Y-165162501D02*
X152100000Y-165162501D01*
X152600000Y-164162500D02*
X152600000Y-164662501D01*
X152600000Y-164162500D02*
X155722236Y-164161384D01*
X155725000Y-150162500D02*
X142725000Y-150162500D01*
X156225000Y-163662500D02*
X156225000Y-150662500D01*
X199375000Y-150662500D02*
X199375000Y-163662500D01*
X199875000Y-164162500D02*
X212875000Y-164162500D01*
X212875000Y-150162500D02*
X199875000Y-150162500D01*
X213375000Y-163662500D02*
X213375000Y-150662500D01*
X256525000Y-150662500D02*
X256525000Y-163662500D01*
X257025000Y-164162500D02*
X260150605Y-164162500D01*
X260150000Y-164162500D02*
X260150000Y-164662501D01*
X260650000Y-165162501D02*
X266400000Y-165162501D01*
X266900000Y-164162500D02*
X266900000Y-164662501D01*
X266900000Y-164162500D02*
X270022236Y-164161384D01*
X270025000Y-150162500D02*
X257025000Y-150162500D01*
X270525000Y-163662500D02*
X270525000Y-150662500D01*
X142725000Y-150162500D02*
G75*
G03*
X142225000Y-150662500I-2J-499998D01*
G01*
X142227764Y-163661384D02*
G75*
G03*
X142727764Y-164161384I499998J-2D01*
G01*
X145850000Y-164662501D02*
G75*
G03*
X146350000Y-165162501I500001J1D01*
G01*
X152100000Y-165162501D02*
G75*
G03*
X152600000Y-164662501I-1J500001D01*
G01*
X156225000Y-150662500D02*
G75*
G03*
X155725000Y-150162500I-500001J-1D01*
G01*
X155725000Y-164162500D02*
G75*
G03*
X156225000Y-163662500I-1J500001D01*
G01*
X199875000Y-150162500D02*
G75*
G03*
X199375000Y-150662500I-2J-499998D01*
G01*
X199377764Y-163661384D02*
G75*
G03*
X199877764Y-164161384I499998J-2D01*
G01*
X213375000Y-150662500D02*
G75*
G03*
X212875000Y-150162500I-500000J0D01*
G01*
X212875000Y-164162500D02*
G75*
G03*
X213375000Y-163662500I0J500000D01*
G01*
X257025000Y-150162500D02*
G75*
G03*
X256525000Y-150662500I0J-500000D01*
G01*
X256527816Y-163661384D02*
G75*
G03*
X257027764Y-164161384I499984J-16D01*
G01*
X260149999Y-164662501D02*
G75*
G03*
X260650000Y-165162501I500001J1D01*
G01*
X266400000Y-165162500D02*
G75*
G03*
X266900000Y-164662501I0J500000D01*
G01*
X270525000Y-150662500D02*
G75*
G03*
X270025000Y-150162500I-500000J0D01*
G01*
X270025000Y-164162500D02*
G75*
G03*
X270525000Y-163662500I0J500000D01*
G01*
%TO.C,S2*%
X219668750Y-151662501D02*
X219668750Y-164662501D01*
X220168750Y-151162501D02*
X225918750Y-151162501D01*
X220168750Y-165162501D02*
X225918750Y-165162501D01*
X226418750Y-151662501D02*
X226418750Y-164662501D01*
X227950000Y-150662500D02*
X227950000Y-163662500D01*
X228450000Y-164162500D02*
X241450000Y-164162500D01*
X241450000Y-150162500D02*
X228450000Y-150162500D01*
X241950000Y-163662500D02*
X241950000Y-150662500D01*
X243481250Y-151662501D02*
X243481250Y-164662501D01*
X243981250Y-151162501D02*
X249731250Y-151162501D01*
X243981250Y-165162501D02*
X249731250Y-165162501D01*
X250231250Y-151662501D02*
X250231250Y-164662501D01*
X220168750Y-151162501D02*
G75*
G03*
X219668750Y-151662501I1J-500001D01*
G01*
X219668750Y-164662501D02*
G75*
G03*
X220168750Y-165162501I500001J1D01*
G01*
X226418750Y-151662501D02*
G75*
G03*
X225918750Y-151162501I-499998J2D01*
G01*
X225918750Y-165162501D02*
G75*
G03*
X226418750Y-164662501I2J499998D01*
G01*
X228450000Y-150162500D02*
G75*
G03*
X227950000Y-150662500I-2J-499998D01*
G01*
X227952764Y-163661384D02*
G75*
G03*
X228452764Y-164161384I499998J-2D01*
G01*
X241950000Y-150662500D02*
G75*
G03*
X241450000Y-150162500I-500000J0D01*
G01*
X241450000Y-164162500D02*
G75*
G03*
X241950000Y-163662500I0J500000D01*
G01*
X243981250Y-151162450D02*
G75*
G03*
X243481250Y-151662501I50J-500050D01*
G01*
X243481299Y-164662501D02*
G75*
G03*
X243981250Y-165162501I500001J1D01*
G01*
X250231199Y-151662501D02*
G75*
G03*
X249731250Y-151162501I-499999J1D01*
G01*
X249731250Y-165162550D02*
G75*
G03*
X250231250Y-164662501I-50J500050D01*
G01*
%TO.C,S1*%
X162518750Y-151662501D02*
X162518750Y-164662501D01*
X163018750Y-151162501D02*
X168768750Y-151162501D01*
X163018750Y-165162501D02*
X168768750Y-165162501D01*
X169268750Y-151662501D02*
X169268750Y-164662501D01*
X170800000Y-150662500D02*
X170800000Y-163662500D01*
X171300000Y-164162500D02*
X184300000Y-164162500D01*
X184300000Y-150162500D02*
X171300000Y-150162500D01*
X184800000Y-163662500D02*
X184800000Y-150662500D01*
X186331250Y-151662501D02*
X186331250Y-164662501D01*
X186831250Y-151162501D02*
X192581250Y-151162501D01*
X186831250Y-165162501D02*
X192581250Y-165162501D01*
X193081250Y-151662501D02*
X193081250Y-164662501D01*
X163018750Y-151162501D02*
G75*
G03*
X162518750Y-151662501I1J-500001D01*
G01*
X162518750Y-164662501D02*
G75*
G03*
X163018750Y-165162501I500001J1D01*
G01*
X169268750Y-151662501D02*
G75*
G03*
X168768750Y-151162501I-499998J2D01*
G01*
X168768750Y-165162501D02*
G75*
G03*
X169268750Y-164662501I2J499998D01*
G01*
X171300000Y-150162500D02*
G75*
G03*
X170800000Y-150662500I-2J-499998D01*
G01*
X170802764Y-163661384D02*
G75*
G03*
X171302764Y-164161384I499998J-2D01*
G01*
X184800000Y-150662500D02*
G75*
G03*
X184300000Y-150162500I-500000J0D01*
G01*
X184300000Y-164162500D02*
G75*
G03*
X184800000Y-163662500I0J500000D01*
G01*
X186831250Y-151162450D02*
G75*
G03*
X186331250Y-151662501I50J-500050D01*
G01*
X186331299Y-164662501D02*
G75*
G03*
X186831250Y-165162501I500001J1D01*
G01*
X193081199Y-151662501D02*
G75*
G03*
X192581250Y-151162501I-499999J1D01*
G01*
X192581250Y-165162550D02*
G75*
G03*
X193081250Y-164662501I-50J500050D01*
G01*
%TO.C,MX56*%
X270525000Y-144612500D02*
X270525000Y-131612500D01*
X270025000Y-131112500D02*
X257025000Y-131112500D01*
X257025000Y-145112500D02*
X270025000Y-145112500D01*
X256525000Y-131612500D02*
X256525000Y-144612500D01*
X270025000Y-145112500D02*
G75*
G03*
X270525000Y-144612500I-1J500001D01*
G01*
X270525000Y-131612500D02*
G75*
G03*
X270025000Y-131112500I-500001J-1D01*
G01*
X256527716Y-144611384D02*
G75*
G03*
X257027764Y-145111384I500084J84D01*
G01*
X257025000Y-131112500D02*
G75*
G03*
X256525000Y-131612500I0J-500000D01*
G01*
%TO.C,MX73*%
X308625000Y-163662500D02*
X308625000Y-150662500D01*
X308125000Y-150162500D02*
X295125000Y-150162500D01*
X295125000Y-164162500D02*
X308125000Y-164162500D01*
X294625000Y-150662500D02*
X294625000Y-163662500D01*
X308125000Y-164162500D02*
G75*
G03*
X308625000Y-163662500I-1J500001D01*
G01*
X308625000Y-150662500D02*
G75*
G03*
X308125000Y-150162500I-500001J-1D01*
G01*
X294627716Y-163661384D02*
G75*
G03*
X295127764Y-164161384I500084J84D01*
G01*
X295125000Y-150162500D02*
G75*
G03*
X294625000Y-150662500I0J-500000D01*
G01*
%TO.C,MX19*%
X146700000Y-106512500D02*
X146700000Y-93512500D01*
X146200000Y-93012500D02*
X133200000Y-93012500D01*
X133200000Y-107012500D02*
X146200000Y-107012500D01*
X132700000Y-93512500D02*
X132700000Y-106512500D01*
X146200000Y-107012500D02*
G75*
G03*
X146700000Y-106512500I-1J500001D01*
G01*
X146700000Y-93512500D02*
G75*
G03*
X146200000Y-93012500I-500001J-1D01*
G01*
X132702716Y-106511384D02*
G75*
G03*
X133202764Y-107011384I500084J84D01*
G01*
X133200000Y-93012500D02*
G75*
G03*
X132700000Y-93512500I0J-500000D01*
G01*
%TO.C,MX5*%
X156225000Y-87462500D02*
X156225000Y-74462500D01*
X155725000Y-73962500D02*
X142725000Y-73962500D01*
X142725000Y-87962500D02*
X155725000Y-87962500D01*
X142225000Y-74462500D02*
X142225000Y-87462500D01*
X155725000Y-87962500D02*
G75*
G03*
X156225000Y-87462500I-1J500001D01*
G01*
X156225000Y-74462500D02*
G75*
G03*
X155725000Y-73962500I-500001J-1D01*
G01*
X142227716Y-87461384D02*
G75*
G03*
X142727764Y-87961384I500084J84D01*
G01*
X142725000Y-73962500D02*
G75*
G03*
X142225000Y-74462500I0J-500000D01*
G01*
%TO.C,MX16*%
X84787500Y-106512500D02*
X84787500Y-93512500D01*
X84287500Y-93012500D02*
X71287500Y-93012500D01*
X71287500Y-107012500D02*
X84287500Y-107012500D01*
X70787500Y-93512500D02*
X70787500Y-106512500D01*
X84287500Y-107012500D02*
G75*
G03*
X84787500Y-106512500I-1J500001D01*
G01*
X84787500Y-93512500D02*
G75*
G03*
X84287500Y-93012500I-500001J-1D01*
G01*
X70790216Y-106511384D02*
G75*
G03*
X71290264Y-107011384I500084J84D01*
G01*
X71287500Y-93012500D02*
G75*
G03*
X70787500Y-93512500I0J-500000D01*
G01*
%TO.C,MX51*%
X175275000Y-144612500D02*
X175275000Y-131612500D01*
X174775000Y-131112500D02*
X161775000Y-131112500D01*
X161775000Y-145112500D02*
X174775000Y-145112500D01*
X161275000Y-131612500D02*
X161275000Y-144612500D01*
X174775000Y-145112500D02*
G75*
G03*
X175275000Y-144612500I-1J500001D01*
G01*
X175275000Y-131612500D02*
G75*
G03*
X174775000Y-131112500I-500001J-1D01*
G01*
X161277716Y-144611384D02*
G75*
G03*
X161777764Y-145111384I500084J84D01*
G01*
X161775000Y-131112500D02*
G75*
G03*
X161275000Y-131612500I0J-500000D01*
G01*
%TO.C,MX40*%
X246712500Y-125562500D02*
X246712500Y-112562500D01*
X246212500Y-112062500D02*
X233212500Y-112062500D01*
X233212500Y-126062500D02*
X246212500Y-126062500D01*
X232712500Y-112562500D02*
X232712500Y-125562500D01*
X246212500Y-126062500D02*
G75*
G03*
X246712500Y-125562500I-1J500001D01*
G01*
X246712500Y-112562500D02*
G75*
G03*
X246212500Y-112062500I-500001J-1D01*
G01*
X232715216Y-125561384D02*
G75*
G03*
X233215264Y-126061384I500084J84D01*
G01*
X233212500Y-112062500D02*
G75*
G03*
X232712500Y-112562500I0J-500000D01*
G01*
%TO.C,MX8*%
X213375000Y-87462500D02*
X213375000Y-74462500D01*
X212875000Y-73962500D02*
X199875000Y-73962500D01*
X199875000Y-87962500D02*
X212875000Y-87962500D01*
X199375000Y-74462500D02*
X199375000Y-87462500D01*
X212875000Y-87962500D02*
G75*
G03*
X213375000Y-87462500I-1J500001D01*
G01*
X213375000Y-74462500D02*
G75*
G03*
X212875000Y-73962500I-500001J-1D01*
G01*
X199377716Y-87461384D02*
G75*
G03*
X199877764Y-87961384I500084J84D01*
G01*
X199875000Y-73962500D02*
G75*
G03*
X199375000Y-74462500I0J-500000D01*
G01*
%TO.C,MX7*%
X194325000Y-87462500D02*
X194325000Y-74462500D01*
X193825000Y-73962500D02*
X180825000Y-73962500D01*
X180825000Y-87962500D02*
X193825000Y-87962500D01*
X180325000Y-74462500D02*
X180325000Y-87462500D01*
X193825000Y-87962500D02*
G75*
G03*
X194325000Y-87462500I-1J500001D01*
G01*
X194325000Y-74462500D02*
G75*
G03*
X193825000Y-73962500I-500001J-1D01*
G01*
X180327716Y-87461384D02*
G75*
G03*
X180827764Y-87961384I500084J84D01*
G01*
X180825000Y-73962500D02*
G75*
G03*
X180325000Y-74462500I0J-500000D01*
G01*
%TO.C,MX26*%
X261000000Y-106512500D02*
X261000000Y-93512500D01*
X260500000Y-93012500D02*
X247500000Y-93012500D01*
X247500000Y-107012500D02*
X260500000Y-107012500D01*
X247000000Y-93512500D02*
X247000000Y-106512500D01*
X260500000Y-107012500D02*
G75*
G03*
X261000000Y-106512500I-1J500001D01*
G01*
X261000000Y-93512500D02*
G75*
G03*
X260500000Y-93012500I-500001J-1D01*
G01*
X247002716Y-106511384D02*
G75*
G03*
X247502764Y-107011384I500084J84D01*
G01*
X247500000Y-93012500D02*
G75*
G03*
X247000000Y-93512500I0J-500000D01*
G01*
%TO.C,MX41*%
X265762500Y-125562500D02*
X265762500Y-112562500D01*
X265262500Y-112062500D02*
X252262500Y-112062500D01*
X252262500Y-126062500D02*
X265262500Y-126062500D01*
X251762500Y-112562500D02*
X251762500Y-125562500D01*
X265262500Y-126062500D02*
G75*
G03*
X265762500Y-125562500I-1J500001D01*
G01*
X265762500Y-112562500D02*
G75*
G03*
X265262500Y-112062500I-500001J-1D01*
G01*
X251765216Y-125561384D02*
G75*
G03*
X252265264Y-126061384I500084J84D01*
G01*
X252262500Y-112062500D02*
G75*
G03*
X251762500Y-112562500I0J-500000D01*
G01*
%TO.C,MX48*%
X118125000Y-144612500D02*
X118125000Y-131612500D01*
X117625000Y-131112500D02*
X104625000Y-131112500D01*
X104625000Y-145112500D02*
X117625000Y-145112500D01*
X104125000Y-131612500D02*
X104125000Y-144612500D01*
X117625000Y-145112500D02*
G75*
G03*
X118125000Y-144612500I-1J500001D01*
G01*
X118125000Y-131612500D02*
G75*
G03*
X117625000Y-131112500I-500001J-1D01*
G01*
X104127716Y-144611384D02*
G75*
G03*
X104627764Y-145111384I500084J84D01*
G01*
X104625000Y-131112500D02*
G75*
G03*
X104125000Y-131612500I0J-500000D01*
G01*
%TO.C,MX22*%
X203850000Y-106512500D02*
X203850000Y-93512500D01*
X203350000Y-93012500D02*
X190350000Y-93012500D01*
X190350000Y-107012500D02*
X203350000Y-107012500D01*
X189850000Y-93512500D02*
X189850000Y-106512500D01*
X203350000Y-107012500D02*
G75*
G03*
X203850000Y-106512500I-1J500001D01*
G01*
X203850000Y-93512500D02*
G75*
G03*
X203350000Y-93012500I-500001J-1D01*
G01*
X189852716Y-106511384D02*
G75*
G03*
X190352764Y-107011384I500084J84D01*
G01*
X190350000Y-93012500D02*
G75*
G03*
X189850000Y-93512500I0J-500000D01*
G01*
%TO.C,MX35*%
X160987500Y-125562500D02*
X160987500Y-112562500D01*
X160487500Y-112062500D02*
X147487500Y-112062500D01*
X147487500Y-126062500D02*
X160487500Y-126062500D01*
X146987500Y-112562500D02*
X146987500Y-125562500D01*
X160487500Y-126062500D02*
G75*
G03*
X160987500Y-125562500I-1J500001D01*
G01*
X160987500Y-112562500D02*
G75*
G03*
X160487500Y-112062500I-500001J-1D01*
G01*
X146990216Y-125561384D02*
G75*
G03*
X147490264Y-126061384I500084J84D01*
G01*
X147487500Y-112062500D02*
G75*
G03*
X146987500Y-112562500I0J-500000D01*
G01*
%TO.C,MX32*%
X103837500Y-125562500D02*
X103837500Y-112562500D01*
X103337500Y-112062500D02*
X90337500Y-112062500D01*
X90337500Y-126062500D02*
X103337500Y-126062500D01*
X89837500Y-112562500D02*
X89837500Y-125562500D01*
X103337500Y-126062500D02*
G75*
G03*
X103837500Y-125562500I-1J500001D01*
G01*
X103837500Y-112562500D02*
G75*
G03*
X103337500Y-112062500I-500001J-1D01*
G01*
X89840216Y-125561384D02*
G75*
G03*
X90340264Y-126061384I500084J84D01*
G01*
X90337500Y-112062500D02*
G75*
G03*
X89837500Y-112562500I0J-500000D01*
G01*
%TO.C,MX2*%
X85075000Y-74462500D02*
X85075000Y-87462500D01*
X85575000Y-87962500D02*
X98575000Y-87962500D01*
X98575000Y-73962500D02*
X85575000Y-73962500D01*
X99075000Y-87462500D02*
X99075000Y-74462500D01*
X85575000Y-73962500D02*
G75*
G03*
X85075000Y-74462500I1J-500001D01*
G01*
X85075000Y-87462500D02*
G75*
G03*
X85575000Y-87962500I500001J1D01*
G01*
X99072284Y-74463616D02*
G75*
G03*
X98572236Y-73963616I-500084J-84D01*
G01*
X98575000Y-87962500D02*
G75*
G03*
X99075000Y-87462500I0J500000D01*
G01*
%TO.C,MX14*%
X327675000Y-87462500D02*
X327675000Y-74462500D01*
X327175000Y-73962500D02*
X314175000Y-73962500D01*
X314175000Y-87962500D02*
X327175000Y-87962500D01*
X313675000Y-74462500D02*
X313675000Y-87462500D01*
X327175000Y-87962500D02*
G75*
G03*
X327675000Y-87462500I-1J500001D01*
G01*
X327675000Y-74462500D02*
G75*
G03*
X327175000Y-73962500I-500001J-1D01*
G01*
X313677716Y-87461384D02*
G75*
G03*
X314177764Y-87961384I500084J84D01*
G01*
X314175000Y-73962500D02*
G75*
G03*
X313675000Y-74462500I0J-500000D01*
G01*
%TO.C,MX54*%
X232425000Y-144612500D02*
X232425000Y-131612500D01*
X231925000Y-131112500D02*
X218925000Y-131112500D01*
X218925000Y-145112500D02*
X231925000Y-145112500D01*
X218425000Y-131612500D02*
X218425000Y-144612500D01*
X231925000Y-145112500D02*
G75*
G03*
X232425000Y-144612500I-1J500001D01*
G01*
X232425000Y-131612500D02*
G75*
G03*
X231925000Y-131112500I-500001J-1D01*
G01*
X218427716Y-144611384D02*
G75*
G03*
X218927764Y-145111384I500084J84D01*
G01*
X218925000Y-131112500D02*
G75*
G03*
X218425000Y-131612500I0J-500000D01*
G01*
%TO.C,MX10*%
X251475000Y-87462500D02*
X251475000Y-74462500D01*
X250975000Y-73962500D02*
X237975000Y-73962500D01*
X237975000Y-87962500D02*
X250975000Y-87962500D01*
X237475000Y-74462500D02*
X237475000Y-87462500D01*
X250975000Y-87962500D02*
G75*
G03*
X251475000Y-87462500I-1J500001D01*
G01*
X251475000Y-74462500D02*
G75*
G03*
X250975000Y-73962500I-500001J-1D01*
G01*
X237477716Y-87461384D02*
G75*
G03*
X237977764Y-87961384I500084J84D01*
G01*
X237975000Y-73962500D02*
G75*
G03*
X237475000Y-74462500I0J-500000D01*
G01*
%TO.C,MX20*%
X165750000Y-106512500D02*
X165750000Y-93512500D01*
X165250000Y-93012500D02*
X152250000Y-93012500D01*
X152250000Y-107012500D02*
X165250000Y-107012500D01*
X151750000Y-93512500D02*
X151750000Y-106512500D01*
X165250000Y-107012500D02*
G75*
G03*
X165750000Y-106512500I-1J500001D01*
G01*
X165750000Y-93512500D02*
G75*
G03*
X165250000Y-93012500I-500001J-1D01*
G01*
X151752716Y-106511384D02*
G75*
G03*
X152252764Y-107011384I500084J84D01*
G01*
X152250000Y-93012500D02*
G75*
G03*
X151750000Y-93512500I0J-500000D01*
G01*
%TO.C,MX42*%
X284812500Y-125562500D02*
X284812500Y-112562500D01*
X284312500Y-112062500D02*
X271312500Y-112062500D01*
X271312500Y-126062500D02*
X284312500Y-126062500D01*
X270812500Y-112562500D02*
X270812500Y-125562500D01*
X284312500Y-126062500D02*
G75*
G03*
X284812500Y-125562500I-1J500001D01*
G01*
X284812500Y-112562500D02*
G75*
G03*
X284312500Y-112062500I-500001J-1D01*
G01*
X270815216Y-125561384D02*
G75*
G03*
X271315264Y-126061384I500084J84D01*
G01*
X271312500Y-112062500D02*
G75*
G03*
X270812500Y-112562500I0J-500000D01*
G01*
%TO.C,MX24*%
X222900000Y-106512500D02*
X222900000Y-93512500D01*
X222400000Y-93012500D02*
X209400000Y-93012500D01*
X209400000Y-107012500D02*
X222400000Y-107012500D01*
X208900000Y-93512500D02*
X208900000Y-106512500D01*
X222400000Y-107012500D02*
G75*
G03*
X222900000Y-106512500I-1J500001D01*
G01*
X222900000Y-93512500D02*
G75*
G03*
X222400000Y-93012500I-500001J-1D01*
G01*
X208902716Y-106511384D02*
G75*
G03*
X209402764Y-107011384I500084J84D01*
G01*
X209400000Y-93012500D02*
G75*
G03*
X208900000Y-93512500I0J-500000D01*
G01*
%TO.C,MX12*%
X289575000Y-87462500D02*
X289575000Y-74462500D01*
X289075000Y-73962500D02*
X276075000Y-73962500D01*
X276075000Y-87962500D02*
X289075000Y-87962500D01*
X275575000Y-74462500D02*
X275575000Y-87462500D01*
X289075000Y-87962500D02*
G75*
G03*
X289575000Y-87462500I-1J500001D01*
G01*
X289575000Y-74462500D02*
G75*
G03*
X289075000Y-73962500I-500001J-1D01*
G01*
X275577716Y-87461384D02*
G75*
G03*
X276077764Y-87961384I500084J84D01*
G01*
X276075000Y-73962500D02*
G75*
G03*
X275575000Y-74462500I0J-500000D01*
G01*
%TO.C,MX46*%
X80025000Y-144612500D02*
X80025000Y-131612500D01*
X79525000Y-131112500D02*
X66525000Y-131112500D01*
X66525000Y-145112500D02*
X79525000Y-145112500D01*
X66025000Y-131612500D02*
X66025000Y-144612500D01*
X79525000Y-145112500D02*
G75*
G03*
X80025000Y-144612500I-1J500001D01*
G01*
X80025000Y-131612500D02*
G75*
G03*
X79525000Y-131112500I-500001J-1D01*
G01*
X66027716Y-144611384D02*
G75*
G03*
X66527764Y-145111384I500084J84D01*
G01*
X66525000Y-131112500D02*
G75*
G03*
X66025000Y-131612500I0J-500000D01*
G01*
%TO.C,MX15*%
X346725000Y-87462500D02*
X346725000Y-74462500D01*
X346225000Y-73962500D02*
X333225000Y-73962500D01*
X333225000Y-87962500D02*
X346225000Y-87962500D01*
X332725000Y-74462500D02*
X332725000Y-87462500D01*
X346225000Y-87962500D02*
G75*
G03*
X346725000Y-87462500I-1J500001D01*
G01*
X346725000Y-74462500D02*
G75*
G03*
X346225000Y-73962500I-500001J-1D01*
G01*
X332727716Y-87461384D02*
G75*
G03*
X333227764Y-87961384I500084J84D01*
G01*
X333225000Y-73962500D02*
G75*
G03*
X332725000Y-74462500I0J-500000D01*
G01*
%TO.C,MX50*%
X156225000Y-144612500D02*
X156225000Y-131612500D01*
X155725000Y-131112500D02*
X142725000Y-131112500D01*
X142725000Y-145112500D02*
X155725000Y-145112500D01*
X142225000Y-131612500D02*
X142225000Y-144612500D01*
X155725000Y-145112500D02*
G75*
G03*
X156225000Y-144612500I-1J500001D01*
G01*
X156225000Y-131612500D02*
G75*
G03*
X155725000Y-131112500I-500001J-1D01*
G01*
X142227716Y-144611384D02*
G75*
G03*
X142727764Y-145111384I500084J84D01*
G01*
X142725000Y-131112500D02*
G75*
G03*
X142225000Y-131612500I0J-500000D01*
G01*
%TO.C,MX1*%
X66025000Y-74462500D02*
X66025000Y-87462500D01*
X66525000Y-87962500D02*
X79525000Y-87962500D01*
X79525000Y-73962500D02*
X66525000Y-73962500D01*
X80025000Y-87462500D02*
X80025000Y-74462500D01*
X66525000Y-73962500D02*
G75*
G03*
X66025000Y-74462500I1J-500001D01*
G01*
X66025000Y-87462500D02*
G75*
G03*
X66525000Y-87962500I500001J1D01*
G01*
X80022284Y-74463616D02*
G75*
G03*
X79522236Y-73963616I-500084J-84D01*
G01*
X79525000Y-87962500D02*
G75*
G03*
X80025000Y-87462500I0J500000D01*
G01*
%TO.C,MX29*%
X318150000Y-106512500D02*
X318150000Y-93512500D01*
X317650000Y-93012500D02*
X304650000Y-93012500D01*
X304650000Y-107012500D02*
X317650000Y-107012500D01*
X304150000Y-93512500D02*
X304150000Y-106512500D01*
X317650000Y-107012500D02*
G75*
G03*
X318150000Y-106512500I-1J500001D01*
G01*
X318150000Y-93512500D02*
G75*
G03*
X317650000Y-93012500I-500001J-1D01*
G01*
X304152716Y-106511384D02*
G75*
G03*
X304652764Y-107011384I500084J84D01*
G01*
X304650000Y-93012500D02*
G75*
G03*
X304150000Y-93512500I0J-500000D01*
G01*
%TO.C,MX57*%
X289575000Y-144612500D02*
X289575000Y-131612500D01*
X289075000Y-131112500D02*
X276075000Y-131112500D01*
X276075000Y-145112500D02*
X289075000Y-145112500D01*
X275575000Y-131612500D02*
X275575000Y-144612500D01*
X289075000Y-145112500D02*
G75*
G03*
X289575000Y-144612500I-1J500001D01*
G01*
X289575000Y-131612500D02*
G75*
G03*
X289075000Y-131112500I-500001J-1D01*
G01*
X275577716Y-144611384D02*
G75*
G03*
X276077764Y-145111384I500084J84D01*
G01*
X276075000Y-131112500D02*
G75*
G03*
X275575000Y-131612500I0J-500000D01*
G01*
%TO.C,MX18*%
X127650000Y-106512500D02*
X127650000Y-93512500D01*
X127150000Y-93012500D02*
X114150000Y-93012500D01*
X114150000Y-107012500D02*
X127150000Y-107012500D01*
X113650000Y-93512500D02*
X113650000Y-106512500D01*
X127150000Y-107012500D02*
G75*
G03*
X127650000Y-106512500I-1J500001D01*
G01*
X127650000Y-93512500D02*
G75*
G03*
X127150000Y-93012500I-500001J-1D01*
G01*
X113652716Y-106511384D02*
G75*
G03*
X114152764Y-107011384I500084J84D01*
G01*
X114150000Y-93012500D02*
G75*
G03*
X113650000Y-93512500I0J-500000D01*
G01*
%TO.C,MX44*%
X322912500Y-125562500D02*
X322912500Y-112562500D01*
X322412500Y-112062500D02*
X309412500Y-112062500D01*
X309412500Y-126062500D02*
X322412500Y-126062500D01*
X308912500Y-112562500D02*
X308912500Y-125562500D01*
X322412500Y-126062500D02*
G75*
G03*
X322912500Y-125562500I-1J500001D01*
G01*
X322912500Y-112562500D02*
G75*
G03*
X322412500Y-112062500I-500001J-1D01*
G01*
X308915216Y-125561384D02*
G75*
G03*
X309415264Y-126061384I500084J84D01*
G01*
X309412500Y-112062500D02*
G75*
G03*
X308912500Y-112562500I0J-500000D01*
G01*
%TO.C,MX21*%
X184800000Y-106512500D02*
X184800000Y-93512500D01*
X184300000Y-93012500D02*
X171300000Y-93012500D01*
X171300000Y-107012500D02*
X184300000Y-107012500D01*
X170800000Y-93512500D02*
X170800000Y-106512500D01*
X184300000Y-107012500D02*
G75*
G03*
X184800000Y-106512500I-1J500001D01*
G01*
X184800000Y-93512500D02*
G75*
G03*
X184300000Y-93012500I-500001J-1D01*
G01*
X170802716Y-106511384D02*
G75*
G03*
X171302764Y-107011384I500084J84D01*
G01*
X171300000Y-93012500D02*
G75*
G03*
X170800000Y-93512500I0J-500000D01*
G01*
%TO.C,MX59*%
X327675000Y-144612500D02*
X327675000Y-131612500D01*
X327175000Y-131112500D02*
X314175000Y-131112500D01*
X314175000Y-145112500D02*
X327175000Y-145112500D01*
X313675000Y-131612500D02*
X313675000Y-144612500D01*
X327175000Y-145112500D02*
G75*
G03*
X327675000Y-144612500I-1J500001D01*
G01*
X327675000Y-131612500D02*
G75*
G03*
X327175000Y-131112500I-500001J-1D01*
G01*
X313677716Y-144611384D02*
G75*
G03*
X314177764Y-145111384I500084J84D01*
G01*
X314175000Y-131112500D02*
G75*
G03*
X313675000Y-131612500I0J-500000D01*
G01*
%TO.C,MX43*%
X303862500Y-125562500D02*
X303862500Y-112562500D01*
X303362500Y-112062500D02*
X290362500Y-112062500D01*
X290362500Y-126062500D02*
X303362500Y-126062500D01*
X289862500Y-112562500D02*
X289862500Y-125562500D01*
X303362500Y-126062500D02*
G75*
G03*
X303862500Y-125562500I-1J500001D01*
G01*
X303862500Y-112562500D02*
G75*
G03*
X303362500Y-112062500I-500001J-1D01*
G01*
X289865216Y-125561384D02*
G75*
G03*
X290365264Y-126061384I500084J84D01*
G01*
X290362500Y-112062500D02*
G75*
G03*
X289862500Y-112562500I0J-500000D01*
G01*
%TO.C,MX75*%
X346725000Y-163662500D02*
X346725000Y-150662500D01*
X346225000Y-150162500D02*
X333225000Y-150162500D01*
X333225000Y-164162500D02*
X346225000Y-164162500D01*
X332725000Y-150662500D02*
X332725000Y-163662500D01*
X346225000Y-164162500D02*
G75*
G03*
X346725000Y-163662500I-1J500001D01*
G01*
X346725000Y-150662500D02*
G75*
G03*
X346225000Y-150162500I-500001J-1D01*
G01*
X332727716Y-163661384D02*
G75*
G03*
X333227764Y-164161384I500084J84D01*
G01*
X333225000Y-150162500D02*
G75*
G03*
X332725000Y-150662500I0J-500000D01*
G01*
%TO.C,MX36*%
X180037500Y-125562500D02*
X180037500Y-112562500D01*
X179537500Y-112062500D02*
X166537500Y-112062500D01*
X166537500Y-126062500D02*
X179537500Y-126062500D01*
X166037500Y-112562500D02*
X166037500Y-125562500D01*
X179537500Y-126062500D02*
G75*
G03*
X180037500Y-125562500I-1J500001D01*
G01*
X180037500Y-112562500D02*
G75*
G03*
X179537500Y-112062500I-500001J-1D01*
G01*
X166040216Y-125561384D02*
G75*
G03*
X166540264Y-126061384I500084J84D01*
G01*
X166537500Y-112062500D02*
G75*
G03*
X166037500Y-112562500I0J-500000D01*
G01*
%TO.C,MX11*%
X270525000Y-87462500D02*
X270525000Y-74462500D01*
X270025000Y-73962500D02*
X257025000Y-73962500D01*
X257025000Y-87962500D02*
X270025000Y-87962500D01*
X256525000Y-74462500D02*
X256525000Y-87462500D01*
X270025000Y-87962500D02*
G75*
G03*
X270525000Y-87462500I-1J500001D01*
G01*
X270525000Y-74462500D02*
G75*
G03*
X270025000Y-73962500I-500001J-1D01*
G01*
X256527716Y-87461384D02*
G75*
G03*
X257027764Y-87961384I500084J84D01*
G01*
X257025000Y-73962500D02*
G75*
G03*
X256525000Y-74462500I0J-500000D01*
G01*
%TO.C,MX61*%
X80025000Y-163662500D02*
X80025000Y-150662500D01*
X79525000Y-150162500D02*
X66525000Y-150162500D01*
X66525000Y-164162500D02*
X79525000Y-164162500D01*
X66025000Y-150662500D02*
X66025000Y-163662500D01*
X79525000Y-164162500D02*
G75*
G03*
X80025000Y-163662500I-1J500001D01*
G01*
X80025000Y-150662500D02*
G75*
G03*
X79525000Y-150162500I-500001J-1D01*
G01*
X66027716Y-163661384D02*
G75*
G03*
X66527764Y-164161384I500084J84D01*
G01*
X66525000Y-150162500D02*
G75*
G03*
X66025000Y-150662500I0J-500000D01*
G01*
%TO.C,MX27*%
X280050000Y-106512500D02*
X280050000Y-93512500D01*
X279550000Y-93012500D02*
X266550000Y-93012500D01*
X266550000Y-107012500D02*
X279550000Y-107012500D01*
X266050000Y-93512500D02*
X266050000Y-106512500D01*
X279550000Y-107012500D02*
G75*
G03*
X280050000Y-106512500I-1J500001D01*
G01*
X280050000Y-93512500D02*
G75*
G03*
X279550000Y-93012500I-500001J-1D01*
G01*
X266052716Y-106511384D02*
G75*
G03*
X266552764Y-107011384I500084J84D01*
G01*
X266550000Y-93012500D02*
G75*
G03*
X266050000Y-93512500I0J-500000D01*
G01*
%TO.C,MX47*%
X99075000Y-144612500D02*
X99075000Y-131612500D01*
X98575000Y-131112500D02*
X85575000Y-131112500D01*
X85575000Y-145112500D02*
X98575000Y-145112500D01*
X85075000Y-131612500D02*
X85075000Y-144612500D01*
X98575000Y-145112500D02*
G75*
G03*
X99075000Y-144612500I-1J500001D01*
G01*
X99075000Y-131612500D02*
G75*
G03*
X98575000Y-131112500I-500001J-1D01*
G01*
X85077716Y-144611384D02*
G75*
G03*
X85577764Y-145111384I500084J84D01*
G01*
X85575000Y-131112500D02*
G75*
G03*
X85075000Y-131612500I0J-500000D01*
G01*
%TO.C,MX3*%
X118125000Y-87462500D02*
X118125000Y-74462500D01*
X117625000Y-73962500D02*
X104625000Y-73962500D01*
X104625000Y-87962500D02*
X117625000Y-87962500D01*
X104125000Y-74462500D02*
X104125000Y-87462500D01*
X117625000Y-87962500D02*
G75*
G03*
X118125000Y-87462500I-1J500001D01*
G01*
X118125000Y-74462500D02*
G75*
G03*
X117625000Y-73962500I-500001J-1D01*
G01*
X104127716Y-87461384D02*
G75*
G03*
X104627764Y-87961384I500084J84D01*
G01*
X104625000Y-73962500D02*
G75*
G03*
X104125000Y-74462500I0J-500000D01*
G01*
%TO.C,MX33*%
X122887500Y-125562500D02*
X122887500Y-112562500D01*
X122387500Y-112062500D02*
X109387500Y-112062500D01*
X109387500Y-126062500D02*
X122387500Y-126062500D01*
X108887500Y-112562500D02*
X108887500Y-125562500D01*
X122387500Y-126062500D02*
G75*
G03*
X122887500Y-125562500I-1J500001D01*
G01*
X122887500Y-112562500D02*
G75*
G03*
X122387500Y-112062500I-500001J-1D01*
G01*
X108890216Y-125561384D02*
G75*
G03*
X109390264Y-126061384I500084J84D01*
G01*
X109387500Y-112062500D02*
G75*
G03*
X108887500Y-112562500I0J-500000D01*
G01*
%TO.C,MX49*%
X137175000Y-144612500D02*
X137175000Y-131612500D01*
X136675000Y-131112500D02*
X123675000Y-131112500D01*
X123675000Y-145112500D02*
X136675000Y-145112500D01*
X123175000Y-131612500D02*
X123175000Y-144612500D01*
X136675000Y-145112500D02*
G75*
G03*
X137175000Y-144612500I-1J500001D01*
G01*
X137175000Y-131612500D02*
G75*
G03*
X136675000Y-131112500I-500001J-1D01*
G01*
X123177716Y-144611384D02*
G75*
G03*
X123677764Y-145111384I500084J84D01*
G01*
X123675000Y-131112500D02*
G75*
G03*
X123175000Y-131612500I0J-500000D01*
G01*
%TO.C,MX64*%
X137175000Y-163662500D02*
X137175000Y-150662500D01*
X136675000Y-150162500D02*
X123675000Y-150162500D01*
X123675000Y-164162500D02*
X136675000Y-164162500D01*
X123175000Y-150662500D02*
X123175000Y-163662500D01*
X136675000Y-164162500D02*
G75*
G03*
X137175000Y-163662500I-1J500001D01*
G01*
X137175000Y-150662500D02*
G75*
G03*
X136675000Y-150162500I-500001J-1D01*
G01*
X123177716Y-163661384D02*
G75*
G03*
X123677764Y-164161384I500084J84D01*
G01*
X123675000Y-150162500D02*
G75*
G03*
X123175000Y-150662500I0J-500000D01*
G01*
%TO.C,MX60*%
X346725000Y-144612500D02*
X346725000Y-131612500D01*
X346225000Y-131112500D02*
X333225000Y-131112500D01*
X333225000Y-145112500D02*
X346225000Y-145112500D01*
X332725000Y-131612500D02*
X332725000Y-144612500D01*
X346225000Y-145112500D02*
G75*
G03*
X346725000Y-144612500I-1J500001D01*
G01*
X346725000Y-131612500D02*
G75*
G03*
X346225000Y-131112500I-500001J-1D01*
G01*
X332727716Y-144611384D02*
G75*
G03*
X333227764Y-145111384I500084J84D01*
G01*
X333225000Y-131112500D02*
G75*
G03*
X332725000Y-131612500I0J-500000D01*
G01*
%TO.C,MX13*%
X308625000Y-87462500D02*
X308625000Y-74462500D01*
X308125000Y-73962500D02*
X295125000Y-73962500D01*
X295125000Y-87962500D02*
X308125000Y-87962500D01*
X294625000Y-74462500D02*
X294625000Y-87462500D01*
X308125000Y-87962500D02*
G75*
G03*
X308625000Y-87462500I-1J500001D01*
G01*
X308625000Y-74462500D02*
G75*
G03*
X308125000Y-73962500I-500001J-1D01*
G01*
X294627716Y-87461384D02*
G75*
G03*
X295127764Y-87961384I500084J84D01*
G01*
X295125000Y-73962500D02*
G75*
G03*
X294625000Y-74462500I0J-500000D01*
G01*
%TO.C,MX9*%
X232425000Y-87462500D02*
X232425000Y-74462500D01*
X231925000Y-73962500D02*
X218925000Y-73962500D01*
X218925000Y-87962500D02*
X231925000Y-87962500D01*
X218425000Y-74462500D02*
X218425000Y-87462500D01*
X231925000Y-87962500D02*
G75*
G03*
X232425000Y-87462500I-1J500001D01*
G01*
X232425000Y-74462500D02*
G75*
G03*
X231925000Y-73962500I-500001J-1D01*
G01*
X218427716Y-87461384D02*
G75*
G03*
X218927764Y-87961384I500084J84D01*
G01*
X218925000Y-73962500D02*
G75*
G03*
X218425000Y-74462500I0J-500000D01*
G01*
%TO.C,MX34*%
X141937500Y-125562500D02*
X141937500Y-112562500D01*
X141437500Y-112062500D02*
X128437500Y-112062500D01*
X128437500Y-126062500D02*
X141437500Y-126062500D01*
X127937500Y-112562500D02*
X127937500Y-125562500D01*
X141437500Y-126062500D02*
G75*
G03*
X141937500Y-125562500I-1J500001D01*
G01*
X141937500Y-112562500D02*
G75*
G03*
X141437500Y-112062500I-500001J-1D01*
G01*
X127940216Y-125561384D02*
G75*
G03*
X128440264Y-126061384I500084J84D01*
G01*
X128437500Y-112062500D02*
G75*
G03*
X127937500Y-112562500I0J-500000D01*
G01*
%TO.C,MX63*%
X118125000Y-163662500D02*
X118125000Y-150662500D01*
X117625000Y-150162500D02*
X104625000Y-150162500D01*
X104625000Y-164162500D02*
X117625000Y-164162500D01*
X104125000Y-150662500D02*
X104125000Y-163662500D01*
X117625000Y-164162500D02*
G75*
G03*
X118125000Y-163662500I-1J500001D01*
G01*
X118125000Y-150662500D02*
G75*
G03*
X117625000Y-150162500I-500001J-1D01*
G01*
X104127716Y-163661384D02*
G75*
G03*
X104627764Y-164161384I500084J84D01*
G01*
X104625000Y-150162500D02*
G75*
G03*
X104125000Y-150662500I0J-500000D01*
G01*
%TO.C,MX53*%
X213375000Y-144612500D02*
X213375000Y-131612500D01*
X212875000Y-131112500D02*
X199875000Y-131112500D01*
X199875000Y-145112500D02*
X212875000Y-145112500D01*
X199375000Y-131612500D02*
X199375000Y-144612500D01*
X212875000Y-145112500D02*
G75*
G03*
X213375000Y-144612500I-1J500001D01*
G01*
X213375000Y-131612500D02*
G75*
G03*
X212875000Y-131112500I-500001J-1D01*
G01*
X199377716Y-144611384D02*
G75*
G03*
X199877764Y-145111384I500084J84D01*
G01*
X199875000Y-131112500D02*
G75*
G03*
X199375000Y-131612500I0J-500000D01*
G01*
%TO.C,MX74*%
X327675000Y-163662500D02*
X327675000Y-150662500D01*
X327175000Y-150162500D02*
X314175000Y-150162500D01*
X314175000Y-164162500D02*
X327175000Y-164162500D01*
X313675000Y-150662500D02*
X313675000Y-163662500D01*
X327175000Y-164162500D02*
G75*
G03*
X327675000Y-163662500I-1J500001D01*
G01*
X327675000Y-150662500D02*
G75*
G03*
X327175000Y-150162500I-500001J-1D01*
G01*
X313677716Y-163661384D02*
G75*
G03*
X314177764Y-164161384I500084J84D01*
G01*
X314175000Y-150162500D02*
G75*
G03*
X313675000Y-150662500I0J-500000D01*
G01*
%TO.C,MX4*%
X137175000Y-87462500D02*
X137175000Y-74462500D01*
X136675000Y-73962500D02*
X123675000Y-73962500D01*
X123675000Y-87962500D02*
X136675000Y-87962500D01*
X123175000Y-74462500D02*
X123175000Y-87462500D01*
X136675000Y-87962500D02*
G75*
G03*
X137175000Y-87462500I-1J500001D01*
G01*
X137175000Y-74462500D02*
G75*
G03*
X136675000Y-73962500I-500001J-1D01*
G01*
X123177716Y-87461384D02*
G75*
G03*
X123677764Y-87961384I500084J84D01*
G01*
X123675000Y-73962500D02*
G75*
G03*
X123175000Y-74462500I0J-500000D01*
G01*
%TO.C,MX52*%
X194325000Y-144612500D02*
X194325000Y-131612500D01*
X193825000Y-131112500D02*
X180825000Y-131112500D01*
X180825000Y-145112500D02*
X193825000Y-145112500D01*
X180325000Y-131612500D02*
X180325000Y-144612500D01*
X193825000Y-145112500D02*
G75*
G03*
X194325000Y-144612500I-1J500001D01*
G01*
X194325000Y-131612500D02*
G75*
G03*
X193825000Y-131112500I-500001J-1D01*
G01*
X180327716Y-144611384D02*
G75*
G03*
X180827764Y-145111384I500084J84D01*
G01*
X180825000Y-131112500D02*
G75*
G03*
X180325000Y-131612500I0J-500000D01*
G01*
%TO.C,MX55*%
X251475000Y-144612500D02*
X251475000Y-131612500D01*
X250975000Y-131112500D02*
X237975000Y-131112500D01*
X237975000Y-145112500D02*
X250975000Y-145112500D01*
X237475000Y-131612500D02*
X237475000Y-144612500D01*
X250975000Y-145112500D02*
G75*
G03*
X251475000Y-144612500I-1J500001D01*
G01*
X251475000Y-131612500D02*
G75*
G03*
X250975000Y-131112500I-500001J-1D01*
G01*
X237477716Y-144611384D02*
G75*
G03*
X237977764Y-145111384I500084J84D01*
G01*
X237975000Y-131112500D02*
G75*
G03*
X237475000Y-131612500I0J-500000D01*
G01*
%TO.C,MX25*%
X241950000Y-106512500D02*
X241950000Y-93512500D01*
X241450000Y-93012500D02*
X228450000Y-93012500D01*
X228450000Y-107012500D02*
X241450000Y-107012500D01*
X227950000Y-93512500D02*
X227950000Y-106512500D01*
X241450000Y-107012500D02*
G75*
G03*
X241950000Y-106512500I-1J500001D01*
G01*
X241950000Y-93512500D02*
G75*
G03*
X241450000Y-93012500I-500001J-1D01*
G01*
X227952716Y-106511384D02*
G75*
G03*
X228452764Y-107011384I500084J84D01*
G01*
X228450000Y-93012500D02*
G75*
G03*
X227950000Y-93512500I0J-500000D01*
G01*
%TO.C,MX72*%
X289575000Y-163662500D02*
X289575000Y-150662500D01*
X289075000Y-150162500D02*
X276075000Y-150162500D01*
X276075000Y-164162500D02*
X289075000Y-164162500D01*
X275575000Y-150662500D02*
X275575000Y-163662500D01*
X289075000Y-164162500D02*
G75*
G03*
X289575000Y-163662500I-1J500001D01*
G01*
X289575000Y-150662500D02*
G75*
G03*
X289075000Y-150162500I-500001J-1D01*
G01*
X275577716Y-163661384D02*
G75*
G03*
X276077764Y-164161384I500084J84D01*
G01*
X276075000Y-150162500D02*
G75*
G03*
X275575000Y-150662500I0J-500000D01*
G01*
%TO.C,MX30*%
X341962500Y-106512500D02*
X341962500Y-93512500D01*
X341462500Y-93012500D02*
X328462500Y-93012500D01*
X328462500Y-107012500D02*
X341462500Y-107012500D01*
X327962500Y-93512500D02*
X327962500Y-106512500D01*
X341462500Y-107012500D02*
G75*
G03*
X341962500Y-106512500I-1J500001D01*
G01*
X341962500Y-93512500D02*
G75*
G03*
X341462500Y-93012500I-500001J-1D01*
G01*
X327965216Y-106511384D02*
G75*
G03*
X328465264Y-107011384I500084J84D01*
G01*
X328462500Y-93012500D02*
G75*
G03*
X327962500Y-93512500I0J-500000D01*
G01*
%TO.C,MX58*%
X308625000Y-144612500D02*
X308625000Y-131612500D01*
X308125000Y-131112500D02*
X295125000Y-131112500D01*
X295125000Y-145112500D02*
X308125000Y-145112500D01*
X294625000Y-131612500D02*
X294625000Y-144612500D01*
X308125000Y-145112500D02*
G75*
G03*
X308625000Y-144612500I-1J500001D01*
G01*
X308625000Y-131612500D02*
G75*
G03*
X308125000Y-131112500I-500001J-1D01*
G01*
X294627716Y-144611384D02*
G75*
G03*
X295127764Y-145111384I500084J84D01*
G01*
X295125000Y-131112500D02*
G75*
G03*
X294625000Y-131612500I0J-500000D01*
G01*
%TO.C,MX17*%
X108600000Y-106512500D02*
X108600000Y-93512500D01*
X108100000Y-93012500D02*
X95100000Y-93012500D01*
X95100000Y-107012500D02*
X108100000Y-107012500D01*
X94600000Y-93512500D02*
X94600000Y-106512500D01*
X108100000Y-107012500D02*
G75*
G03*
X108600000Y-106512500I-1J500001D01*
G01*
X108600000Y-93512500D02*
G75*
G03*
X108100000Y-93012500I-500001J-1D01*
G01*
X94602716Y-106511384D02*
G75*
G03*
X95102764Y-107011384I500084J84D01*
G01*
X95100000Y-93012500D02*
G75*
G03*
X94600000Y-93512500I0J-500000D01*
G01*
%TO.C,MX28*%
X299100000Y-106512500D02*
X299100000Y-93512500D01*
X298600000Y-93012500D02*
X285600000Y-93012500D01*
X285600000Y-107012500D02*
X298600000Y-107012500D01*
X285100000Y-93512500D02*
X285100000Y-106512500D01*
X298600000Y-107012500D02*
G75*
G03*
X299100000Y-106512500I-1J500001D01*
G01*
X299100000Y-93512500D02*
G75*
G03*
X298600000Y-93012500I-500001J-1D01*
G01*
X285102716Y-106511384D02*
G75*
G03*
X285602764Y-107011384I500084J84D01*
G01*
X285600000Y-93012500D02*
G75*
G03*
X285100000Y-93512500I0J-500000D01*
G01*
%TO.C,MX62*%
X99075000Y-163662500D02*
X99075000Y-150662500D01*
X98575000Y-150162500D02*
X85575000Y-150162500D01*
X85575000Y-164162500D02*
X98575000Y-164162500D01*
X85075000Y-150662500D02*
X85075000Y-163662500D01*
X98575000Y-164162500D02*
G75*
G03*
X99075000Y-163662500I-1J500001D01*
G01*
X99075000Y-150662500D02*
G75*
G03*
X98575000Y-150162500I-500001J-1D01*
G01*
X85077716Y-163661384D02*
G75*
G03*
X85577764Y-164161384I500084J84D01*
G01*
X85575000Y-150162500D02*
G75*
G03*
X85075000Y-150662500I0J-500000D01*
G01*
%TO.C,MX6*%
X175275000Y-87462500D02*
X175275000Y-74462500D01*
X174775000Y-73962500D02*
X161775000Y-73962500D01*
X161775000Y-87962500D02*
X174775000Y-87962500D01*
X161275000Y-74462500D02*
X161275000Y-87462500D01*
X174775000Y-87962500D02*
G75*
G03*
X175275000Y-87462500I-1J500001D01*
G01*
X175275000Y-74462500D02*
G75*
G03*
X174775000Y-73962500I-500001J-1D01*
G01*
X161277716Y-87461384D02*
G75*
G03*
X161777764Y-87961384I500084J84D01*
G01*
X161775000Y-73962500D02*
G75*
G03*
X161275000Y-74462500I0J-500000D01*
G01*
%TD*%
D11*
%TO.C,H6*%
X292100000Y-147637500D03*
D12*
X292100000Y-147637500D03*
%TD*%
D11*
%TO.C,H1*%
X120650000Y-90487500D03*
D12*
X120650000Y-90487500D03*
%TD*%
D11*
%TO.C,H4*%
X120650000Y-147637500D03*
D12*
X120650000Y-147637500D03*
%TD*%
D11*
%TO.C,H3*%
X292100000Y-90487500D03*
D12*
X292100000Y-90487500D03*
%TD*%
D11*
%TO.C,H5*%
X206375000Y-147637500D03*
D12*
X206375000Y-147637500D03*
%TD*%
D11*
%TO.C,H2*%
X206375000Y-90487500D03*
D12*
X206375000Y-90487500D03*
%TD*%
%LPD*%
M02*
